<svg width="140" height="170" viewBox="0 0 140 170" fill="none" xmlns="http://www.w3.org/2000/svg">
<g clip-path="url(#clip0_2_207)">
<path fill-rule="evenodd" clip-rule="evenodd" d="M30.5453 41.5703C28.2731 43.0008 25.3538 42.1776 24.0248 39.7316C22.6959 37.2857 23.4607 34.1431 25.7329 32.7126C28.0052 31.2821 30.9245 32.1053 32.2534 34.5513C33.5823 36.9973 32.8176 40.1398 30.5453 41.5703ZM36.5744 70.4647L38.8319 56.4365L44.6548 57.2741L48.2028 26.0536L56.9841 29.2558L68.4652 50.3879L36.5744 70.4647Z" fill="#D8D8D8"/>
<mask id="mask0_2_207" style="mask-type:luminance" maskUnits="userSpaceOnUse" x="23" y="26" width="46" height="45">
<path fill-rule="evenodd" clip-rule="evenodd" d="M30.5453 41.5703C28.2731 43.0008 25.3538 42.1776 24.0248 39.7316C22.6959 37.2857 23.4607 34.1431 25.7329 32.7126C28.0052 31.2821 30.9245 32.1053 32.2534 34.5513C33.5823 36.9973 32.8176 40.1398 30.5453 41.5703ZM36.5744 70.4647L38.8319 56.4365L44.6548 57.2741L48.2028 26.0536L56.9841 29.2558L68.4652 50.3879L36.5744 70.4647Z" fill="white"/>
</mask>
<g mask="url(#mask0_2_207)">
<path d="M49.3715 7.09047e-06L0 31.0819L28.8745 84.2277L78.246 53.1459L49.3715 7.09047e-06Z" fill="#FFA0A0"/>
</g>
<path d="M51.939 25.0513L45.9553 14.038L13.041 34.7592L29.3403 64.7593L31.4962 48.1536C31.6928 46.6392 33.0688 45.6451 34.4453 46.0229L40.9626 47.8121L43.5181 25.4334C43.6988 23.8513 45.1618 22.8278 46.5782 23.2925L51.939 25.0513ZM55.4852 31.5785L47.9026 29.0907L45.3629 51.3311C45.1877 52.8657 43.8005 53.886 42.4087 53.5039L35.848 51.7028L33.5508 69.3965L65.205 49.4685L55.4852 31.5785ZM10.6348 30.3304L43.5491 9.60914C45.8214 8.17864 48.7407 9.00184 50.0696 11.4478L69.3193 46.8784C70.6482 49.3243 69.8835 52.4669 67.6112 53.8974L34.6969 74.6186C32.4246 76.0491 29.5053 75.2259 28.1764 72.7799L8.92671 37.3494C7.5978 34.9034 8.36254 31.7609 10.6348 30.3304ZM31.7485 43.7847C28.3401 45.9305 23.9611 44.6957 21.9677 41.0267C19.9743 37.3577 21.1214 32.644 24.5298 30.4982C27.9382 28.3525 32.3172 29.5873 34.3106 33.2562C36.304 36.9252 35.1569 41.6389 31.7485 43.7847ZM29.3423 39.3559C30.4784 38.6406 30.8608 37.0694 30.1963 35.8464C29.5318 34.6234 28.0722 34.2118 26.936 34.9271C25.7999 35.6423 25.4175 37.2136 26.082 38.4365C26.7465 39.6595 28.2061 40.0711 29.3423 39.3559Z" fill="black"/>
<mask id="mask1_2_207" style="mask-type:luminance" maskUnits="userSpaceOnUse" x="8" y="8" width="62" height="68">
<path fill-rule="evenodd" clip-rule="evenodd" d="M51.939 25.0513L45.9553 14.038L13.041 34.7592L29.3403 64.7593L31.4962 48.1536C31.6928 46.6392 33.0688 45.6451 34.4453 46.0229L40.9626 47.8121L43.5181 25.4334C43.6988 23.8513 45.1618 22.8278 46.5782 23.2925L51.939 25.0513ZM55.4852 31.5785L47.9026 29.0907L45.3629 51.3311C45.1877 52.8657 43.8005 53.886 42.4087 53.5039L35.848 51.7028L33.5508 69.3965L65.205 49.4685L55.4852 31.5785ZM10.6348 30.3304L43.5491 9.60914C45.8214 8.17864 48.7407 9.00184 50.0696 11.4478L69.3193 46.8784C70.6482 49.3243 69.8835 52.4669 67.6112 53.8974L34.6969 74.6186C32.4246 76.0491 29.5053 75.2259 28.1764 72.7799L8.92671 37.3494C7.5978 34.9034 8.36254 31.7609 10.6348 30.3304ZM31.7485 43.7847C28.3401 45.9305 23.9611 44.6957 21.9677 41.0267C19.9743 37.3577 21.1214 32.644 24.5298 30.4982C27.9382 28.3525 32.3172 29.5873 34.3106 33.2562C36.304 36.9252 35.1569 41.6389 31.7485 43.7847ZM29.3423 39.3559C30.4784 38.6406 30.8608 37.0694 30.1963 35.8464C29.5318 34.6234 28.0722 34.2118 26.936 34.9271C25.7999 35.6423 25.4175 37.2136 26.082 38.4365C26.7465 39.6595 28.2061 40.0711 29.3423 39.3559Z" fill="white"/>
</mask>
<g mask="url(#mask1_2_207)">
<path d="M49.3715 -5.38923e-07L0 31.0819L28.8745 84.2277L78.246 53.1459L49.3715 -5.38923e-07Z" fill="#7600FF"/>
</g>
</g>
<path fill-rule="evenodd" clip-rule="evenodd" d="M43.9248 36.9832C41.2925 36.9832 39.1586 34.6862 39.1586 31.8526C39.1586 29.019 41.2925 26.722 43.9248 26.722C46.5572 26.722 48.6911 29.019 48.6911 31.8526C48.6911 34.6862 46.5572 36.9832 43.9248 36.9832ZM35.5781 65.2017L44.1058 54.3191L48.7394 58.2066L66.4441 33.1847L72.5224 40.721V65.2017H35.5781Z" fill="#D8D8D8"/>
<mask id="mask2_2_207" style="mask-type:luminance" maskUnits="userSpaceOnUse" x="35" y="26" width="38" height="40">
<path fill-rule="evenodd" clip-rule="evenodd" d="M43.9248 36.9832C41.2925 36.9832 39.1586 34.6862 39.1586 31.8526C39.1586 29.019 41.2925 26.722 43.9248 26.722C46.5572 26.722 48.6911 29.019 48.6911 31.8526C48.6911 34.6862 46.5572 36.9832 43.9248 36.9832ZM35.5781 65.2017L44.1058 54.3191L48.7394 58.2066L66.4441 33.1847L72.5224 40.721V65.2017H35.5781Z" fill="white"/>
</mask>
<g mask="url(#mask2_2_207)">
<path d="M79.6718 11.3301L22.4767 11.3301L22.4767 72.8976H79.6718V11.3301Z" fill="#FFA0A0"/>
</g>
<path d="M70.1393 34.3499V21.5913L32.0092 21.5913V56.3454L41.6581 43.1827C42.5381 41.9823 44.1921 41.8719 45.203 42.9461L49.9898 48.0323L62.6911 30.1035C63.589 28.836 65.332 28.7476 66.3367 29.9184L70.1393 34.3499ZM70.1393 41.9114L64.7606 35.6432L52.1378 53.4613C51.2668 54.6907 49.5909 54.8176 48.5687 53.7314L43.75 48.6114L33.469 62.6364H70.1393V41.9114ZM32.0092 16.4607L70.1393 16.4607C72.7716 16.4607 74.9055 18.7577 74.9055 21.5913V62.6364C74.9055 65.4699 72.7716 67.767 70.1393 67.767H32.0092C29.3768 67.767 27.2429 65.4699 27.2429 62.6364L27.2429 21.5913C27.2429 18.7577 29.3768 16.4607 32.0092 16.4607ZM43.9248 39.5485C39.9763 39.5485 36.7754 36.1029 36.7754 31.8526C36.7754 27.6022 39.9763 24.1566 43.9248 24.1566C47.8733 24.1566 51.0742 27.6022 51.0742 31.8526C51.0742 36.1029 47.8733 39.5485 43.9248 39.5485ZM43.9248 34.4179C45.241 34.4179 46.308 33.2694 46.308 31.8526C46.308 30.4358 45.241 29.2873 43.9248 29.2873C42.6087 29.2873 41.5417 30.4358 41.5417 31.8526C41.5417 33.2694 42.6087 34.4179 43.9248 34.4179Z" fill="black"/>
<mask id="mask3_2_207" style="mask-type:luminance" maskUnits="userSpaceOnUse" x="27" y="16" width="48" height="52">
<path fill-rule="evenodd" clip-rule="evenodd" d="M70.1393 34.3499V21.5913L32.0092 21.5913V56.3454L41.6581 43.1827C42.5381 41.9823 44.1921 41.8719 45.203 42.9461L49.9898 48.0323L62.6911 30.1035C63.589 28.836 65.332 28.7476 66.3367 29.9184L70.1393 34.3499ZM70.1393 41.9114L64.7606 35.6432L52.1378 53.4613C51.2668 54.6907 49.5909 54.8176 48.5687 53.7314L43.75 48.6114L33.469 62.6364H70.1393V41.9114ZM32.0092 16.4607L70.1393 16.4607C72.7716 16.4607 74.9055 18.7577 74.9055 21.5913V62.6364C74.9055 65.4699 72.7716 67.767 70.1393 67.767H32.0092C29.3768 67.767 27.2429 65.4699 27.2429 62.6364L27.2429 21.5913C27.2429 18.7577 29.3768 16.4607 32.0092 16.4607ZM43.9248 39.5485C39.9763 39.5485 36.7754 36.1029 36.7754 31.8526C36.7754 27.6022 39.9763 24.1566 43.9248 24.1566C47.8733 24.1566 51.0742 27.6022 51.0742 31.8526C51.0742 36.1029 47.8733 39.5485 43.9248 39.5485ZM43.9248 34.4179C45.241 34.4179 46.308 33.2694 46.308 31.8526C46.308 30.4358 45.241 29.2873 43.9248 29.2873C42.6087 29.2873 41.5417 30.4358 41.5417 31.8526C41.5417 33.2694 42.6087 34.4179 43.9248 34.4179Z" fill="white"/>
</mask>
<g mask="url(#mask3_2_207)">
<path d="M79.6718 11.3301L22.4767 11.3301L22.4767 72.8976H79.6718V11.3301Z" fill="#7600FF"/>
</g>
<g clip-path="url(#clip1_2_207)">
<path fill-rule="evenodd" clip-rule="evenodd" d="M72.7383 42.7922C75.0106 44.2227 77.9299 43.3995 79.2588 40.9536C80.5877 38.5076 79.823 35.3651 77.5507 33.9346C75.2784 32.5041 72.3591 33.3273 71.0302 35.7733C69.7013 38.2192 70.466 41.3617 72.7383 42.7922ZM66.7092 71.6867L64.4517 57.6585L58.6288 58.4961L55.0808 27.2755L46.2996 30.4778L34.8184 51.6098L66.7092 71.6867Z" fill="#D8D8D8"/>
<mask id="mask4_2_207" style="mask-type:luminance" maskUnits="userSpaceOnUse" x="34" y="27" width="46" height="45">
<path fill-rule="evenodd" clip-rule="evenodd" d="M72.7383 42.7922C75.0106 44.2227 77.9299 43.3995 79.2588 40.9536C80.5877 38.5076 79.823 35.3651 77.5507 33.9346C75.2784 32.5041 72.3591 33.3273 71.0302 35.7733C69.7013 38.2192 70.466 41.3617 72.7383 42.7922ZM66.7092 71.6867L64.4517 57.6585L58.6288 58.4961L55.0808 27.2755L46.2996 30.4778L34.8184 51.6098L66.7092 71.6867Z" fill="white"/>
</mask>
<g mask="url(#mask4_2_207)">
<path d="M53.9121 1.22196L103.284 32.3038L74.4091 85.4497L25.0376 54.3678L53.9121 1.22196Z" fill="#FFA0A0"/>
</g>
<path d="M51.3447 26.2733L57.3283 15.2599L90.2426 35.9812L73.9434 65.9813L71.7875 49.3756C71.5908 47.8611 70.2148 46.867 68.8384 47.2449L62.321 49.034L59.7655 26.6553C59.5849 25.0733 58.1218 24.0497 56.7054 24.5144L51.3447 26.2733ZM47.7984 32.8004L55.381 30.3126L57.9207 52.5531C58.096 54.0877 59.4832 55.1079 60.875 54.7258L67.4357 52.9248L69.7328 70.6184L38.0786 50.6905L47.7984 32.8004ZM92.6488 31.5523L59.7345 10.8311C57.4622 9.40059 54.5429 10.2238 53.214 12.6698L33.9643 48.1003C32.6354 50.5463 33.4002 53.6888 35.6724 55.1193L68.5868 75.8406C70.859 77.2711 73.7784 76.4479 75.1073 74.0019L94.3569 38.5713C95.6858 36.1254 94.9211 32.9828 92.6488 31.5523ZM71.5352 45.0067C74.9436 47.1524 79.3226 45.9176 81.3159 42.2487C83.3093 38.5797 82.1622 33.8659 78.7538 31.7202C75.3454 29.5744 70.9664 30.8092 68.973 34.4782C66.9797 38.1471 68.1268 42.8609 71.5352 45.0067ZM73.9414 40.5778C72.8052 39.8626 72.4229 38.2913 73.0873 37.0683C73.7518 35.8454 75.2115 35.4338 76.3476 36.149C77.4837 36.8643 77.8661 38.4355 77.2016 39.6585C76.5372 40.8815 75.0775 41.2931 73.9414 40.5778Z" fill="black"/>
<mask id="mask5_2_207" style="mask-type:luminance" maskUnits="userSpaceOnUse" x="33" y="10" width="63" height="67">
<path fill-rule="evenodd" clip-rule="evenodd" d="M51.3447 26.2733L57.3283 15.2599L90.2426 35.9812L73.9434 65.9813L71.7875 49.3756C71.5908 47.8611 70.2148 46.867 68.8384 47.2449L62.321 49.034L59.7655 26.6553C59.5849 25.0733 58.1218 24.0497 56.7054 24.5144L51.3447 26.2733ZM47.7984 32.8004L55.381 30.3126L57.9207 52.5531C58.096 54.0877 59.4832 55.1079 60.875 54.7258L67.4357 52.9248L69.7328 70.6184L38.0786 50.6905L47.7984 32.8004ZM92.6488 31.5523L59.7345 10.8311C57.4622 9.40059 54.5429 10.2238 53.214 12.6698L33.9643 48.1003C32.6354 50.5463 33.4002 53.6888 35.6724 55.1193L68.5868 75.8406C70.859 77.2711 73.7784 76.4479 75.1073 74.0019L94.3569 38.5713C95.6858 36.1254 94.9211 32.9828 92.6488 31.5523ZM71.5352 45.0067C74.9436 47.1524 79.3226 45.9176 81.3159 42.2487C83.3093 38.5797 82.1622 33.8659 78.7538 31.7202C75.3454 29.5744 70.9664 30.8092 68.973 34.4782C66.9797 38.1471 68.1268 42.8609 71.5352 45.0067ZM73.9414 40.5778C72.8052 39.8626 72.4229 38.2913 73.0873 37.0683C73.7518 35.8454 75.2115 35.4338 76.3476 36.149C77.4837 36.8643 77.8661 38.4355 77.2016 39.6585C76.5372 40.8815 75.0775 41.2931 73.9414 40.5778Z" fill="white"/>
</mask>
<g mask="url(#mask5_2_207)">
<path d="M53.9121 1.22195L103.284 32.3038L74.4091 85.4497L25.0376 54.3678L53.9121 1.22195Z" fill="#7600FF"/>
</g>
</g>
<path d="M95.6809 93.9595L107.241 106.595M107.241 106.595L118.801 93.9595M107.241 106.595V76.2703C107.241 73.5894 106.266 71.0184 104.532 69.1228C102.798 67.2271 100.446 66.1622 97.9929 66.1622H81.8089" stroke="#443DFF" stroke-width="2" stroke-linecap="round" stroke-linejoin="round"/>
<path d="M130.29 161.415V140.939L119.832 136.316V110.557H78.0023V166.037H130.29V161.415ZM119.832 161.415V143.362L125.06 145.783V161.415H119.832Z" fill="#C09553"/>
<path d="M115.575 157.238H107.844V159.205H115.575V157.238Z" fill="url(#paint0_linear_2_207)"/>
<path d="M115.575 152.682H107.844V154.65H115.575V152.682Z" fill="url(#paint1_linear_2_207)"/>
<path d="M115.575 148.125H107.844V150.093H115.575V148.125Z" fill="url(#paint2_linear_2_207)"/>
<path d="M115.575 143.568H107.844V145.535H115.575V143.568Z" fill="url(#paint3_linear_2_207)"/>
<path d="M115.575 139.011H107.844V140.978H115.575V139.011Z" fill="url(#paint4_linear_2_207)"/>
<path d="M115.575 134.453H107.844V136.421H115.575V134.453Z" fill="url(#paint5_linear_2_207)"/>
<path d="M115.575 129.896H107.844V131.864H115.575V129.896Z" fill="url(#paint6_linear_2_207)"/>
<path d="M115.575 125.341H107.844V127.308H115.575V125.341Z" fill="url(#paint7_linear_2_207)"/>
<path d="M115.575 120.784H107.844V122.751H115.575V120.784Z" fill="url(#paint8_linear_2_207)"/>
<path d="M112.408 159.54H104.677V161.508H112.408V159.54Z" fill="url(#paint9_linear_2_207)"/>
<path d="M112.408 154.983H104.677V156.95H112.408V154.983Z" fill="url(#paint10_linear_2_207)"/>
<path d="M112.408 150.426H104.677V152.393H112.408V150.426Z" fill="url(#paint11_linear_2_207)"/>
<path d="M112.408 145.868H104.677V147.836H112.408V145.868Z" fill="url(#paint12_linear_2_207)"/>
<path d="M112.408 141.313H104.677V143.281H112.408V141.313Z" fill="url(#paint13_linear_2_207)"/>
<path d="M115.575 161.795H107.844V163.763H115.575V161.795Z" fill="url(#paint14_linear_2_207)"/>
<path d="M112.408 136.756H104.677V138.723H112.408V136.756Z" fill="url(#paint15_linear_2_207)"/>
<path d="M112.408 132.199H104.677V134.166H112.408V132.199Z" fill="url(#paint16_linear_2_207)"/>
<path d="M112.408 127.641H104.677V129.609H112.408V127.641Z" fill="url(#paint17_linear_2_207)"/>
<path d="M112.408 123.084H104.677V125.052H112.408V123.084Z" fill="url(#paint18_linear_2_207)"/>
<path d="M112.408 164.091H104.677V166.059H112.408V164.091Z" fill="url(#paint19_linear_2_207)"/>
<path d="M113.334 118.307C113.32 118.026 113.185 117.761 112.957 117.565C112.728 117.37 112.424 117.259 112.106 117.257H112.086V118.36H112.292L112.753 123.342H107.707L108.18 118.36H108.39V117.257H108.292C107.974 117.259 107.67 117.369 107.441 117.565C107.213 117.76 107.079 118.026 107.066 118.307L106.363 139.248C106.357 139.385 106.383 139.522 106.439 139.649C106.494 139.777 106.578 139.893 106.686 139.992C106.794 140.09 106.923 140.168 107.066 140.221C107.208 140.274 107.362 140.301 107.517 140.301H112.966C113.121 140.301 113.274 140.274 113.416 140.22C113.558 140.167 113.687 140.089 113.794 139.991C113.902 139.893 113.986 139.776 114.041 139.649C114.096 139.521 114.122 139.385 114.116 139.248L113.334 118.307ZM110.232 139.112C109.713 139.112 109.206 138.976 108.775 138.721C108.343 138.466 108.007 138.103 107.808 137.679C107.61 137.255 107.558 136.789 107.659 136.339C107.76 135.889 108.01 135.475 108.377 135.151C108.744 134.826 109.212 134.605 109.721 134.516C110.23 134.426 110.757 134.472 111.237 134.648C111.716 134.823 112.126 135.121 112.414 135.502C112.703 135.884 112.857 136.333 112.857 136.791C112.855 137.406 112.577 137.994 112.086 138.428C111.594 138.862 110.927 139.106 110.232 139.106V139.112Z" fill="url(#paint20_linear_2_207)"/>
<path d="M111.622 114.128H108.843V120.179H111.622V114.128Z" fill="url(#paint21_linear_2_207)"/>
<path d="M116.247 115.63C116.247 114.29 115.645 113.006 114.574 112.059C113.503 111.111 112.05 110.579 110.535 110.579H109.917C109.023 110.58 108.141 110.765 107.343 111.122C106.545 111.478 105.853 111.995 105.322 112.631C104.791 113.267 104.436 114.004 104.286 114.784C104.136 115.563 104.195 116.362 104.458 117.118V117.13C104.962 118.782 105.159 120.496 105.043 122.204C105.077 122.688 105.222 123.161 105.469 123.593C105.716 124.026 106.06 124.41 106.479 124.723L106.723 117.905C106.747 117.605 106.9 117.325 107.15 117.122C107.4 116.919 107.728 116.808 108.068 116.813H108.37V113.702H112.074V116.813H112.299C112.639 116.809 112.968 116.92 113.22 117.123C113.471 117.325 113.627 117.605 113.654 117.905L113.925 124.764C114.36 124.452 114.718 124.063 114.974 123.622C115.231 123.182 115.382 122.699 115.418 122.204V122.05C115.418 122.022 115.418 121.996 115.418 121.968C115.418 121.941 115.418 121.917 115.418 121.891C115.32 120.318 115.498 118.742 115.947 117.217C116.142 116.706 116.244 116.17 116.247 115.63Z" fill="url(#paint22_linear_2_207)"/>
<defs>
<linearGradient id="paint0_linear_2_207" x1="107.844" y1="158.222" x2="115.572" y2="158.222" gradientUnits="userSpaceOnUse">
<stop stop-color="#4D4D4D"/>
<stop offset="0.5" stop-color="white"/>
<stop offset="1" stop-color="#4D4D4D"/>
</linearGradient>
<linearGradient id="paint1_linear_2_207" x1="107.844" y1="153.665" x2="115.572" y2="153.665" gradientUnits="userSpaceOnUse">
<stop stop-color="#4D4D4D"/>
<stop offset="0.5" stop-color="white"/>
<stop offset="1" stop-color="#4D4D4D"/>
</linearGradient>
<linearGradient id="paint2_linear_2_207" x1="107.844" y1="149.108" x2="115.572" y2="149.108" gradientUnits="userSpaceOnUse">
<stop stop-color="#4D4D4D"/>
<stop offset="0.5" stop-color="white"/>
<stop offset="1" stop-color="#4D4D4D"/>
</linearGradient>
<linearGradient id="paint3_linear_2_207" x1="107.844" y1="144.551" x2="115.572" y2="144.551" gradientUnits="userSpaceOnUse">
<stop stop-color="#4D4D4D"/>
<stop offset="0.5" stop-color="white"/>
<stop offset="1" stop-color="#4D4D4D"/>
</linearGradient>
<linearGradient id="paint4_linear_2_207" x1="107.844" y1="139.995" x2="115.572" y2="139.995" gradientUnits="userSpaceOnUse">
<stop stop-color="#4D4D4D"/>
<stop offset="0.5" stop-color="white"/>
<stop offset="1" stop-color="#4D4D4D"/>
</linearGradient>
<linearGradient id="paint5_linear_2_207" x1="107.844" y1="135.438" x2="115.572" y2="135.438" gradientUnits="userSpaceOnUse">
<stop stop-color="#4D4D4D"/>
<stop offset="0.5" stop-color="white"/>
<stop offset="1" stop-color="#4D4D4D"/>
</linearGradient>
<linearGradient id="paint6_linear_2_207" x1="107.844" y1="130.881" x2="115.572" y2="130.881" gradientUnits="userSpaceOnUse">
<stop stop-color="#4D4D4D"/>
<stop offset="0.5" stop-color="white"/>
<stop offset="1" stop-color="#4D4D4D"/>
</linearGradient>
<linearGradient id="paint7_linear_2_207" x1="107.844" y1="126.324" x2="115.572" y2="126.324" gradientUnits="userSpaceOnUse">
<stop stop-color="#4D4D4D"/>
<stop offset="0.5" stop-color="white"/>
<stop offset="1" stop-color="#4D4D4D"/>
</linearGradient>
<linearGradient id="paint8_linear_2_207" x1="107.844" y1="121.766" x2="115.572" y2="121.766" gradientUnits="userSpaceOnUse">
<stop stop-color="#4D4D4D"/>
<stop offset="0.5" stop-color="white"/>
<stop offset="1" stop-color="#4D4D4D"/>
</linearGradient>
<linearGradient id="paint9_linear_2_207" x1="104.677" y1="160.523" x2="112.406" y2="160.523" gradientUnits="userSpaceOnUse">
<stop stop-color="#4D4D4D"/>
<stop offset="0.5" stop-color="white"/>
<stop offset="1" stop-color="#4D4D4D"/>
</linearGradient>
<linearGradient id="paint10_linear_2_207" x1="104.677" y1="155.968" x2="112.406" y2="155.968" gradientUnits="userSpaceOnUse">
<stop stop-color="#4D4D4D"/>
<stop offset="0.5" stop-color="white"/>
<stop offset="1" stop-color="#4D4D4D"/>
</linearGradient>
<linearGradient id="paint11_linear_2_207" x1="104.677" y1="151.41" x2="112.406" y2="151.41" gradientUnits="userSpaceOnUse">
<stop stop-color="#4D4D4D"/>
<stop offset="0.5" stop-color="white"/>
<stop offset="1" stop-color="#4D4D4D"/>
</linearGradient>
<linearGradient id="paint12_linear_2_207" x1="104.677" y1="146.853" x2="112.406" y2="146.853" gradientUnits="userSpaceOnUse">
<stop stop-color="#4D4D4D"/>
<stop offset="0.5" stop-color="white"/>
<stop offset="1" stop-color="#4D4D4D"/>
</linearGradient>
<linearGradient id="paint13_linear_2_207" x1="104.677" y1="142.296" x2="112.406" y2="142.296" gradientUnits="userSpaceOnUse">
<stop stop-color="#4D4D4D"/>
<stop offset="0.5" stop-color="white"/>
<stop offset="1" stop-color="#4D4D4D"/>
</linearGradient>
<linearGradient id="paint14_linear_2_207" x1="107.844" y1="162.78" x2="115.572" y2="162.78" gradientUnits="userSpaceOnUse">
<stop stop-color="#4D4D4D"/>
<stop offset="0.5" stop-color="white"/>
<stop offset="1" stop-color="#4D4D4D"/>
</linearGradient>
<linearGradient id="paint15_linear_2_207" x1="104.677" y1="137.739" x2="112.406" y2="137.739" gradientUnits="userSpaceOnUse">
<stop stop-color="#4D4D4D"/>
<stop offset="0.5" stop-color="white"/>
<stop offset="1" stop-color="#4D4D4D"/>
</linearGradient>
<linearGradient id="paint16_linear_2_207" x1="104.677" y1="133.183" x2="112.406" y2="133.183" gradientUnits="userSpaceOnUse">
<stop stop-color="#4D4D4D"/>
<stop offset="0.5" stop-color="white"/>
<stop offset="1" stop-color="#4D4D4D"/>
</linearGradient>
<linearGradient id="paint17_linear_2_207" x1="104.677" y1="128.626" x2="112.406" y2="128.626" gradientUnits="userSpaceOnUse">
<stop stop-color="#4D4D4D"/>
<stop offset="0.5" stop-color="white"/>
<stop offset="1" stop-color="#4D4D4D"/>
</linearGradient>
<linearGradient id="paint18_linear_2_207" x1="104.677" y1="124.069" x2="112.406" y2="124.069" gradientUnits="userSpaceOnUse">
<stop stop-color="#4D4D4D"/>
<stop offset="0.5" stop-color="white"/>
<stop offset="1" stop-color="#4D4D4D"/>
</linearGradient>
<linearGradient id="paint19_linear_2_207" x1="104.677" y1="165.074" x2="112.406" y2="165.074" gradientUnits="userSpaceOnUse">
<stop stop-color="#4D4D4D"/>
<stop offset="0.5" stop-color="white"/>
<stop offset="1" stop-color="#4D4D4D"/>
</linearGradient>
<linearGradient id="paint20_linear_2_207" x1="106.354" y1="128.779" x2="114.109" y2="128.779" gradientUnits="userSpaceOnUse">
<stop stop-color="#4D4D4D"/>
<stop offset="0.5" stop-color="white"/>
<stop offset="1" stop-color="#4D4D4D"/>
</linearGradient>
<linearGradient id="paint21_linear_2_207" x1="108.843" y1="117.154" x2="111.622" y2="117.154" gradientUnits="userSpaceOnUse">
<stop stop-color="#4D4D4D"/>
<stop offset="0.5" stop-color="white"/>
<stop offset="1" stop-color="#4D4D4D"/>
</linearGradient>
<linearGradient id="paint22_linear_2_207" x1="104.211" y1="117.673" x2="116.254" y2="117.673" gradientUnits="userSpaceOnUse">
<stop stop-color="#4D4D4D"/>
<stop offset="0.5" stop-color="white"/>
<stop offset="1" stop-color="#4D4D4D"/>
</linearGradient>
<clipPath id="clip0_2_207">
<rect width="58.3406" height="60.4832" fill="white" transform="matrix(0.846263 -0.532766 0.477397 0.878688 0 31.0819)"/>
</clipPath>
<clipPath id="clip1_2_207">
<rect width="58.3406" height="60.4832" fill="white" transform="matrix(-0.846263 -0.532766 -0.477397 0.878688 103.284 32.3038)"/>
</clipPath>
</defs>
</svg>
