<svg width="140" height="170" viewBox="0 0 140 170" fill="none" xmlns="http://www.w3.org/2000/svg">
<g clip-path="url(#clip0_2_206)">
<path d="M66.5972 18.8548L60.5407 88.2246L33.316 95.9412L6.16628 88.2353L0.115967 18.8548L66.5972 18.8548Z" fill="#E44D26"/>
<path d="M33.3566 90.0428L55.3556 83.8073L60.5311 24.5275H33.3566L33.3566 90.0428Z" fill="#F16529"/>
<path d="M21.5828 41.5463H33.3566V33.037H12.4871L12.6862 35.3199L14.7319 58.7691H33.3566V50.2599H22.3435L21.5828 41.5463ZM23.4586 63.0238H15.1038L16.2697 76.3847L33.3183 81.2232L33.3566 81.2125V72.3593L33.3202 72.3692L24.0512 69.8103L23.4586 63.0238Z" fill="#EBEBEB"/>
<path d="M6.30127 0L10.5308 0V4.27234L14.3999 4.27234V0L18.6297 0V12.9377H14.4002V8.60542H10.531V12.9377H6.30153L6.30127 0ZM24.1914 4.29046H20.4684V0L32.1469 0V4.29046L28.4217 4.29046V12.9377H24.1921V4.29046H24.1914ZM34.0003 0L38.4104 0L41.1232 4.54597L43.8335 0L48.2454 0V12.9377H44.0331V6.52507L41.1232 11.1251H41.0503L38.1386 6.52507V12.9377H34.0003V0ZM50.3502 0L54.5811 0V8.66137H60.529V12.9377L50.35 12.9377V0L50.3502 0Z" fill="black"/>
<path d="M33.328 58.7691H43.5765L42.6102 69.805L33.3277 72.3665V81.2192L50.3899 76.3847L50.515 74.947L52.471 52.5448L52.674 50.2599H33.328V58.7691ZM33.328 41.5255V41.5463H53.4313L53.5981 39.6338L53.9775 35.3199L54.1764 33.037H33.328V41.5255Z" fill="white"/>
</g>
<path d="M84.3099 81.9244L99.1211 97.3026M99.1211 97.3026L113.932 81.9244M99.1211 97.3026V60.3947C99.1211 57.1319 97.8727 54.0027 95.6506 51.6955C93.4285 49.3883 90.4146 48.0921 87.2721 48.0921H66.5364" stroke="#443DFF" stroke-width="2" stroke-linecap="round" stroke-linejoin="round"/>
<path d="M105.017 97.3026H109.996V104.065C118.904 104.116 127.803 103.972 136.703 104.116C138.601 103.921 140.091 105.418 139.917 107.345C140.058 123.998 139.883 140.659 140 157.311C139.917 159.019 140.167 160.913 139.192 162.425C137.977 163.304 136.403 163.195 134.988 163.262C126.654 163.221 118.329 163.237 109.996 163.237V170H104.793C92.1228 167.65 79.418 165.495 66.7226 163.237C66.7139 143.517 66.7226 123.795 66.7226 104.082C79.484 101.817 92.2546 99.6107 105.017 97.3026Z" fill="#2A5699"/>
<path d="M109.934 106.25H136.719V161.053H109.934V154.202H131.037V150.777H109.934V146.496H131.037V143.071H109.934V138.789H131.037V135.364H109.934V131.082H131.037V127.657H109.934V123.376H131.037V119.951H109.934V115.669H131.037V112.244H109.934V106.25ZM84.5135 121.38C86.0556 121.286 87.5977 121.218 89.1399 121.132C90.219 126.913 91.3229 132.683 92.4917 138.438C93.4091 132.495 94.424 126.569 95.4052 120.636C97.0285 120.576 98.6517 120.482 100.267 120.379C98.4329 128.676 96.8259 137.042 94.8208 145.288C93.465 146.033 91.4359 145.254 89.8288 145.374C88.749 139.706 87.4912 134.071 86.5251 128.377C85.5758 133.908 84.3421 139.388 83.2544 144.887C81.6961 144.801 80.1299 144.698 78.5625 144.586C77.2158 137.051 75.6327 129.567 74.375 122.015C75.7626 121.946 77.1586 121.886 78.5469 121.834C79.3826 127.289 80.3325 132.718 81.063 138.181C82.209 132.581 83.3772 126.981 84.5135 121.38Z" fill="white"/>
<defs>
<clipPath id="clip0_2_206">
<rect width="66.7188" height="96.1842" fill="white"/>
</clipPath>
</defs>
</svg>
