<svg width="140" height="170" viewBox="0 0 140 170" fill="none" xmlns="http://www.w3.org/2000/svg">
<path d="M46.2522 23.2715V24.9218C46.2522 25.5504 45.9711 26.1791 45.4082 26.6729C38.8852 32.3982 32.36 38.1213 25.8375 43.8467C25.2876 44.3294 24.6361 44.5776 23.8616 44.5776V42.9273C24.6362 42.9273 25.2876 42.6791 25.8375 42.1964C32.36 36.4709 38.885 30.7477 45.4082 25.0227C45.9711 24.5288 46.2522 23.9003 46.2522 23.2715Z" fill="#93C8D8"/>
<path d="M1.40735 24.9138V24.7487V24.6662V24.5012V24.3361V24.2536V24.0886V23.9236V23.841V23.676V23.511V23.4285V23.2634C1.40735 23.9569 1.71923 24.6456 2.29338 25.1504C8.73715 30.8117 15.1879 36.4668 21.6347 42.1262C22.2398 42.6571 22.9723 42.9026 23.8618 42.9275V44.5778C22.9725 44.553 22.2398 44.3075 21.6347 43.7765C15.1879 38.1171 8.73715 32.462 2.29338 26.8007C1.71918 26.296 1.40735 25.6072 1.40735 24.9138Z" fill="#93C8D8"/>
<path d="M23.7733 3.61192C24.5302 3.61192 25.2881 3.86475 25.8652 4.37093C32.3788 10.0852 38.8925 15.7995 45.4046 21.5149C46.5329 22.5048 46.5354 24.0334 45.4083 25.0229C38.8854 30.7481 32.3601 36.4713 25.8377 42.1966C25.2878 42.6793 24.6363 42.9275 23.8619 42.9275C22.9725 42.9026 22.2398 42.6571 21.6346 42.1262C15.1879 36.4668 8.73715 30.8117 2.29338 25.1504C1.38203 24.3494 1.13168 23.0847 1.73976 22.0737C1.92216 21.7701 2.14324 21.5159 2.413 21.2792C8.84094 15.642 15.2671 10.0035 21.6938 4.36475C22.2661 3.86305 23.0192 3.61192 23.7733 3.61192Z" fill="#A5DAEE"/>
<path d="M34.3528 17.0361V17.8283C34.3524 17.9015 34.3518 17.9748 34.3514 18.0485V17.2563C34.3519 17.1827 34.3524 17.1094 34.3528 17.0361Z" fill="#519EBB"/>
<path d="M34.3528 17.0361V17.8283C34.3524 17.9015 34.3518 17.9748 34.3514 18.0485V17.2563C34.3519 17.1827 34.3524 17.1094 34.3528 17.0361Z" fill="#519EBB"/>
<path d="M34.3528 17.7762V18.5684C34.3528 18.6042 34.3528 18.64 34.3523 18.6758V17.8836C34.3528 17.8478 34.3528 17.812 34.3528 17.7762Z" fill="#519EBB"/>
<path d="M34.3528 17.7762V18.5684C34.3528 18.6042 34.3528 18.64 34.3523 18.6758V17.8836C34.3528 17.8478 34.3528 17.812 34.3528 17.7762Z" fill="#519EBB"/>
<path d="M33.0985 17.4844V18.2766C33.0985 17.9484 33.0379 17.6095 32.9177 17.2623C32.5185 16.1094 31.5984 15.3635 30.2534 15.1046C29.9597 15.0482 29.6732 15.0198 29.3949 15.0198C28.4605 15.0198 27.6174 15.338 26.8929 15.9739C25.7482 16.9786 24.6026 17.9826 23.4578 18.9873C23.2902 19.1347 23.1097 19.2458 22.8846 19.2458C22.8254 19.2458 22.7632 19.2382 22.6973 19.2214C22.4118 19.1492 22.2321 18.9266 22.2321 18.6836V17.8914C22.2321 18.1344 22.4118 18.3571 22.6973 18.4293C22.7632 18.446 22.8254 18.4536 22.8846 18.4536C23.1098 18.4536 23.2903 18.3425 23.4578 18.1952C24.6026 17.1904 25.7482 16.1865 26.8929 15.1817C27.6174 14.5458 28.4606 14.2276 29.3949 14.2276C29.6731 14.2276 29.9597 14.2559 30.2534 14.3124C31.5984 14.5713 32.5185 15.3172 32.9177 16.4701C33.0379 16.8173 33.0985 17.1563 33.0985 17.4844Z" fill="#519EBB"/>
<path d="M33.0985 17.4844V18.2766C33.0985 17.9484 33.0379 17.6095 32.9176 17.2623C32.5184 16.1094 31.5984 15.3635 30.2533 15.1046C29.9596 15.0482 29.6731 15.0198 29.3948 15.0198C29.2123 15.0198 29.0333 15.032 28.858 15.0563V14.2641C29.0359 14.2396 29.2153 14.2274 29.3948 14.2277C29.6731 14.2277 29.9597 14.256 30.2533 14.3124C31.5984 14.5714 32.5184 15.3173 32.9176 16.4702C33.0379 16.8173 33.0985 17.1563 33.0985 17.4844ZM28.858 14.2641V15.0563C28.5954 15.0923 28.3375 15.157 28.0887 15.2495V14.4573C28.3375 14.3649 28.5954 14.3001 28.858 14.2641ZM28.0887 14.4573V15.2495C27.8371 15.3435 27.5962 15.4649 27.3704 15.6115V14.8194C27.5962 14.6727 27.8371 14.5513 28.0887 14.4573ZM27.3704 14.8194V15.6116C27.2028 15.7205 27.0432 15.8416 26.8928 15.974C25.7481 16.9787 24.6025 17.9826 23.4577 18.9874C23.4035 19.035 23.348 19.0788 23.29 19.1164V18.3243C23.348 18.2867 23.4035 18.2429 23.4577 18.1952C24.6025 17.1904 25.7481 16.1865 26.8928 15.1817C27.0432 15.0494 27.2028 14.9283 27.3704 14.8194ZM23.29 18.3243V19.1164C23.2361 19.1514 23.1802 19.1807 23.1212 19.2027V18.4106C23.1802 18.3887 23.2362 18.3592 23.29 18.3243ZM23.1212 18.4106V19.2027C23.0748 19.22 23.0264 19.2327 22.9759 19.2397V18.4476C23.0255 18.4406 23.0742 18.4282 23.1212 18.4106ZM22.9759 18.4476V19.2397C22.9462 19.2439 22.9158 19.2459 22.8844 19.2459C22.8253 19.2459 22.7631 19.2383 22.6972 19.2215C22.4116 19.1493 22.2318 18.9267 22.2318 18.6837V17.8915C22.2318 18.1345 22.4116 18.3572 22.6972 18.4294C22.763 18.4461 22.8253 18.4537 22.8844 18.4537C22.9158 18.4537 22.9462 18.4517 22.9759 18.4476Z" fill="#519EBB"/>
<path d="M21.1299 24.9319V24.1397C21.1299 24.3094 21.2211 24.4836 21.3987 24.6296C21.5812 24.7803 21.773 24.9211 21.9813 25.0424C22.8527 25.5481 23.7789 25.8168 24.7675 25.8168C25.1069 25.8168 25.4538 25.7852 25.8082 25.7204C26.8314 25.5336 27.6895 25.0894 28.4228 24.444C29.8851 23.1577 31.3483 21.8719 32.8164 20.5904C33.6772 19.8384 34.2051 18.9452 34.3524 17.8837V18.6758C34.205 19.7374 33.6772 20.6306 32.8164 21.3826C31.3484 22.664 29.8852 23.9499 28.4228 25.2361C27.6895 25.8816 26.8315 26.3257 25.8082 26.5126C25.4539 26.5773 25.1069 26.609 24.7675 26.609C23.779 26.609 22.8527 26.3403 21.9813 25.8346C21.773 25.7132 21.5812 25.5724 21.3987 25.4218C21.2212 25.2757 21.1299 25.1015 21.1299 24.9319Z" fill="#519EBB"/>
<path d="M34.3524 17.8836V18.6758C34.242 19.4711 33.9181 20.1719 33.4005 20.7896V19.9974C33.9181 19.3797 34.242 18.6789 34.3524 17.8836ZM33.4005 19.9975V20.7896C33.2272 20.9965 33.0324 21.194 32.8164 21.3826C31.3484 22.664 29.8851 23.9498 28.4228 25.2361C28.2098 25.4236 27.9864 25.5941 27.7512 25.7461V24.954C27.9863 24.8019 28.2098 24.6314 28.4228 24.4439C29.8851 23.1576 31.3483 21.8718 32.8164 20.5904C33.0322 20.4018 33.2272 20.2043 33.4005 19.9975Z" fill="#519EBB"/>
<path d="M27.7513 24.954V25.7462C27.4298 25.9547 27.087 26.1272 26.7288 26.2606V25.4685C27.087 25.335 27.4298 25.1625 27.7513 24.954ZM26.7287 25.4685V26.2606C26.4374 26.3691 26.131 26.4537 25.8082 26.5126C25.7219 26.5284 25.6353 26.5423 25.5485 26.5543V25.7622C25.6347 25.7502 25.7212 25.7363 25.8082 25.7204C26.131 25.6614 26.4374 25.5769 26.7287 25.4685ZM25.5485 25.7622V26.5543C25.2897 26.5904 25.0287 26.6086 24.7675 26.6089C23.779 26.6089 22.8527 26.3402 21.9813 25.8346C21.773 25.7132 21.5812 25.5724 21.3987 25.4217C21.2211 25.2757 21.1299 25.1015 21.1299 24.9318V24.1397C21.1299 24.3093 21.2211 24.4835 21.3987 24.6296C21.5812 24.7802 21.773 24.921 21.9813 25.0424C22.8527 25.548 23.7789 25.8168 24.7675 25.8168C25.0235 25.8168 25.2839 25.7988 25.5485 25.7622Z" fill="#519EBB"/>
<path d="M29.4682 13.1095C29.5245 13.1095 29.5808 13.1133 29.6369 13.1207C29.6932 13.1199 29.7495 13.1191 29.8058 13.1182C29.8462 13.1179 29.887 13.1179 29.9273 13.1179C29.9554 13.1187 29.9831 13.1195 30.0113 13.1199C32.3181 13.3693 34.0619 14.8639 34.3524 16.9285C34.3524 16.9643 34.3524 17.0002 34.3529 17.036C34.3524 17.1092 34.3519 17.1825 34.3515 17.2562V17.5562C34.352 17.6295 34.3525 17.7027 34.3529 17.7761C34.3529 17.8119 34.3529 17.8477 34.3524 17.8835C34.2051 18.945 33.6773 19.8382 32.8164 20.5903C31.3484 21.8717 29.8852 23.1575 28.4228 24.4438C27.6895 25.0892 26.8315 25.5334 25.8082 25.7203C25.4539 25.7849 25.1069 25.8167 24.7675 25.8167C23.779 25.8167 22.8526 25.5479 21.9813 25.0423C21.773 24.9209 21.5812 24.7801 21.3987 24.6294C21.0834 24.3702 21.0403 24.022 21.2968 23.7684C21.418 23.6488 21.5826 23.5875 21.7562 23.5875C21.9291 23.5875 22.1107 23.6483 22.2666 23.7733C22.6447 24.0763 23.0496 24.3414 23.5389 24.4829C24.0004 24.6165 24.4478 24.6852 24.8785 24.6852C25.7751 24.6852 26.5992 24.388 27.3277 23.761C28.9154 22.3949 30.4847 21.0122 32.0455 19.6226C33.0462 18.7319 33.3259 17.6485 32.9176 16.47C32.5184 15.3171 31.5984 14.5712 30.2534 14.3123C29.9597 14.2559 29.6732 14.2275 29.3948 14.2275C28.4604 14.2275 27.6173 14.5457 26.8928 15.1816C25.7482 16.1864 24.6025 17.1903 23.4578 18.1951C23.2902 18.3424 23.1097 18.4535 22.8845 18.4535C22.8254 18.4535 22.7632 18.446 22.6973 18.4292C22.3341 18.3374 22.1423 18.0023 22.2732 17.6916C22.3149 17.5928 22.3801 17.5068 22.4641 17.433C23.6698 16.378 24.8667 15.3157 26.0859 14.2735C26.8713 13.6018 27.8382 13.242 28.9228 13.1201C28.9505 13.1194 28.9786 13.1185 29.0068 13.1177H29.1283C29.1841 13.119 29.2404 13.1198 29.2968 13.1205C29.3536 13.1132 29.4109 13.1095 29.4682 13.1095Z" fill="#81BFD2"/>
<path d="M26.2665 20.7825V21.5746C26.2665 21.7103 26.2116 21.8452 26.1027 21.9551C25.9819 22.0771 25.8112 22.1409 25.6342 22.1409C25.4651 22.1407 25.3009 22.0836 25.1673 21.9787C24.7811 21.6752 24.3776 21.3958 23.8822 21.2517C23.4135 21.1154 22.9585 21.045 22.5203 21.045C21.6262 21.045 20.8017 21.3382 20.0723 21.9645C18.5777 23.248 17.1017 24.5483 15.6347 25.8559C14.9267 26.4873 14.5698 27.2136 14.5698 28.0028V27.2106C14.5698 26.4215 14.9268 25.6952 15.6347 25.0637C17.1017 23.7561 18.5777 22.4558 20.0723 21.1723C20.8018 20.546 21.6261 20.2528 22.5203 20.2528C22.9586 20.2528 23.4135 20.3233 23.8822 20.4595C24.3777 20.6036 24.7811 20.883 25.1673 21.1865C25.3009 21.2915 25.4651 21.3485 25.6342 21.3487C25.8113 21.3487 25.9819 21.2849 26.1027 21.1629C26.2117 21.053 26.2665 20.9182 26.2665 20.7825Z" fill="#519EBB"/>
<path d="M26.2665 20.7825V21.5746C26.2665 21.5848 26.2662 21.5953 26.2655 21.6056V20.8134C26.2663 20.8031 26.2665 20.7927 26.2665 20.7825Z" fill="#519EBB"/>
<path d="M26.2657 20.8135V21.6056C26.2589 21.7153 26.2163 21.8231 26.1381 21.9164V21.1243C26.2163 21.0309 26.2589 20.9231 26.2657 20.8135ZM26.1381 21.1243V21.9164C26.0994 21.9627 26.0541 22.0029 26.0037 22.0356V21.2435C26.0542 21.2109 26.0995 21.1707 26.1381 21.1243ZM26.0037 21.2435V22.0356C25.9649 22.0607 25.9233 22.0814 25.8799 22.0976V21.3054C25.9232 21.2893 25.9647 21.2685 26.0037 21.2435ZM25.8799 21.3054V22.0976C25.8326 22.1151 25.7837 22.1273 25.7338 22.1341V21.342C25.7837 21.3351 25.8326 21.3228 25.8799 21.3054ZM25.7338 21.342V22.1341C25.7011 22.1387 25.6678 22.141 25.6344 22.141C25.4653 22.1408 25.301 22.0837 25.1674 21.9787C24.7812 21.6752 24.3778 21.3958 23.8824 21.2517C23.4137 21.1155 22.9586 21.045 22.5204 21.045C22.3401 21.045 22.1628 21.0569 21.9884 21.0811V20.2889C22.1647 20.2647 22.3425 20.2526 22.5204 20.2529C22.9587 20.2529 23.4136 20.3234 23.8824 20.4596C24.3779 20.6037 24.7812 20.8831 25.1674 21.1866C25.301 21.2916 25.4653 21.3486 25.6344 21.3488C25.6678 21.3488 25.7011 21.3464 25.7338 21.342Z" fill="#519EBB"/>
<path d="M21.9884 20.2889V21.081C21.7294 21.1166 21.4749 21.1805 21.2296 21.2717V20.4795C21.475 20.3884 21.7294 20.3245 21.9884 20.2889ZM21.2296 20.4795V21.2717C20.9845 21.363 20.7468 21.4823 20.5172 21.6309V20.8388C20.7469 20.6902 20.9845 20.5708 21.2296 20.4795ZM20.5172 20.8388V21.631C20.3617 21.7319 20.2131 21.8434 20.0723 21.9646C18.5777 23.248 17.1017 24.5484 15.6347 25.856C15.4867 25.988 15.3539 26.1242 15.2367 26.2642V25.472C15.354 25.332 15.4867 25.1958 15.6347 25.0638C17.1017 23.7561 18.5777 22.4558 20.0723 21.1724C20.2131 21.0512 20.3617 20.9398 20.5172 20.8388ZM15.2366 25.472V26.2642C14.8298 26.7499 14.6083 27.2822 14.5743 27.8486V27.0564C14.6083 26.49 14.8298 25.9578 15.2366 25.472Z" fill="#519EBB"/>
<path d="M14.5744 27.0564V27.8486C14.5714 27.8999 14.5698 27.9514 14.5698 28.0028V27.2106C14.5698 27.1589 14.5714 27.1075 14.5744 27.0564Z" fill="#519EBB"/>
<path d="M13.321 27.7633V28.5555L13.3068 28.0488V27.2566L13.321 27.7633Z" fill="#519EBB"/>
<path d="M18.3834 31.6316V32.4238C18.3601 32.4247 18.3368 32.4251 18.3134 32.4251C18.186 32.4251 18.0772 32.4124 17.8706 32.3897C17.7435 32.3757 17.5647 32.3494 17.4287 32.3308C15.3828 32.0529 13.7609 30.6798 13.378 28.8983C13.3536 28.7851 13.3396 28.6699 13.3208 28.5555V27.7633C13.3396 27.8777 13.3537 27.9929 13.378 28.1061C13.7609 29.8876 15.3828 31.2607 17.4287 31.5386C17.5647 31.5571 17.7436 31.5836 17.8706 31.5976C18.0771 31.6203 18.186 31.6329 18.3134 31.6329C18.336 31.6329 18.3591 31.6324 18.3834 31.6316Z" fill="#519EBB"/>
<path d="M18.3834 31.6316V32.4238C18.3601 32.4247 18.3368 32.4251 18.3134 32.4251C18.186 32.4251 18.0772 32.4124 17.8706 32.3897C17.7435 32.3757 17.5647 32.3494 17.4287 32.3308C15.3828 32.0529 13.7609 30.6798 13.378 28.8983C13.3536 28.7851 13.3396 28.6699 13.3208 28.5555V27.7633C13.3396 27.8777 13.3537 27.9929 13.378 28.1061C13.7609 29.8876 15.3828 31.2607 17.4287 31.5386C17.5647 31.5571 17.7436 31.5836 17.8706 31.5976C18.0771 31.6203 18.186 31.6329 18.3134 31.6329C18.336 31.6329 18.3591 31.6324 18.3834 31.6316Z" fill="#519EBB"/>
<path d="M24.8906 27.2806V28.0728C24.8906 28.1374 24.8781 28.2037 24.8516 28.2698C24.8113 28.3698 24.7488 28.457 24.6648 28.5303C23.6262 29.4379 22.5997 30.3566 21.5422 31.2473C20.7568 31.9084 19.8289 32.3185 18.7479 32.425V31.6329C19.8288 31.5263 20.7568 31.1163 21.5422 30.4551C22.5997 29.5645 23.6261 28.6457 24.6648 27.7381C24.7488 27.6648 24.8113 27.5775 24.8516 27.4776C24.8781 27.4116 24.8906 27.3452 24.8906 27.2806Z" fill="#519EBB"/>
<path d="M24.8905 27.2806V28.0728C24.8905 28.083 24.8902 28.0933 24.8896 28.1035V27.3114C24.8902 27.3011 24.8905 27.2908 24.8905 27.2806ZM24.8896 27.3114V28.1035C24.8859 28.1607 24.8731 28.2169 24.8515 28.2699C24.825 28.3356 24.7884 28.3967 24.743 28.4508V27.6586C24.7884 27.6045 24.825 27.5434 24.8515 27.4777C24.8738 27.422 24.8862 27.3662 24.8896 27.3114Z" fill="#519EBB"/>
<path d="M24.7431 27.6585V28.4507C24.7192 28.4793 24.693 28.5059 24.6649 28.5303C23.6262 29.4379 22.5998 30.3566 21.5423 31.2473C21.3725 31.3905 21.194 31.5228 21.0079 31.6435V30.8513C21.1929 30.7316 21.3709 30.5993 21.5423 30.4551C22.5998 29.5645 23.6262 28.6457 24.6649 27.7381C24.693 27.7137 24.7191 27.6871 24.7431 27.6585ZM21.0079 30.8514V31.6436C20.7045 31.8404 20.3809 32.0033 20.0428 32.1292V31.337C20.3809 31.211 20.7045 31.0482 21.0079 30.8514Z" fill="#519EBB"/>
<path d="M20.043 31.337V32.1292C19.7017 32.2562 19.3416 32.3472 18.9619 32.3998V31.6076C19.3416 31.555 19.7017 31.464 20.043 31.337ZM18.9619 31.6076V32.3998C18.8914 32.4095 18.8201 32.418 18.748 32.4251V31.6329C18.8195 31.6258 18.8908 31.6174 18.9619 31.6076Z" fill="#519EBB"/>
<path d="M22.6438 19.122C23.9176 19.122 25.05 19.5376 26.0399 20.3405C26.321 20.5686 26.3393 20.9242 26.1028 21.163C25.982 21.285 25.8113 21.3488 25.6344 21.3488C25.4653 21.3486 25.301 21.2916 25.1674 21.1865C24.7813 20.8831 24.3778 20.6036 23.8824 20.4595C23.4137 20.3233 22.9586 20.2529 22.5204 20.2529C21.6263 20.2529 20.8019 20.5461 20.0724 21.1724C18.5777 22.4559 17.1018 23.7562 15.6349 25.0638C14.6309 25.9592 14.3329 27.0455 14.7575 28.2309C15.1896 29.4366 16.1616 30.1899 17.5907 30.4104C17.8253 30.4468 18.0549 30.4648 18.2786 30.4648C19.2167 30.4648 20.0554 30.1473 20.7706 29.5205C21.7385 28.6718 22.7073 27.823 23.6742 26.973C23.8366 26.8301 24.0147 26.7246 24.2428 26.7246C24.2736 26.7246 24.3053 26.7265 24.3381 26.7306C24.7485 26.7804 24.9897 27.134 24.8518 27.4777C24.8115 27.5777 24.749 27.6649 24.665 27.7382C23.6264 28.6457 22.5999 29.5645 21.5425 30.4551C20.7571 31.1163 19.8291 31.5264 18.7481 31.6328C18.7095 31.6437 18.6786 31.6476 18.6504 31.6476C18.6191 31.6476 18.5912 31.6428 18.56 31.6383C18.5232 31.6321 18.4859 31.6289 18.4485 31.6287C18.429 31.6287 18.4075 31.6296 18.3836 31.6316C18.3593 31.6325 18.3361 31.6328 18.3136 31.6328C18.1862 31.6328 18.0773 31.6202 17.8708 31.5975C17.7436 31.5835 17.5649 31.5572 17.4288 31.5386C15.3829 31.2607 13.761 29.8876 13.3782 28.1061C13.3538 27.9929 13.3397 27.8777 13.3209 27.7633L13.3069 27.2565C13.3078 27.2191 13.3201 26.9182 13.3204 26.8811C13.3209 26.8568 13.3209 26.8326 13.3214 26.8082C13.4706 25.7401 14.0059 24.8448 14.8734 24.0891C16.249 22.8909 17.6169 21.6857 18.986 20.4813C19.768 19.7939 20.6909 19.3325 21.7887 19.1819C22.0802 19.1419 22.3656 19.122 22.6438 19.122Z" fill="#93C8D8"/>
<path d="M18.748 31.6329V32.425C18.7093 32.4359 18.6784 32.4397 18.6503 32.4397C18.6189 32.4397 18.591 32.435 18.5599 32.4304C18.523 32.4242 18.4857 32.421 18.4483 32.4208C18.4288 32.4208 18.4074 32.4217 18.3834 32.4238V31.6316C18.405 31.6297 18.4267 31.6287 18.4483 31.6287C18.4934 31.6287 18.5284 31.6334 18.5599 31.6383C18.591 31.6428 18.6189 31.6476 18.6503 31.6476C18.6784 31.6475 18.7093 31.6438 18.748 31.6329Z" fill="#519EBB"/>
<path d="M18.7479 31.6329V32.425C18.7301 32.4301 18.712 32.434 18.6937 32.4366V31.6445C18.712 31.6418 18.7301 31.638 18.7479 31.6329ZM18.6937 31.6445V32.4366C18.6793 32.4386 18.6648 32.4396 18.6503 32.4396C18.6189 32.4396 18.591 32.4349 18.5599 32.4304C18.523 32.4242 18.4857 32.421 18.4484 32.4208C18.4288 32.4208 18.4074 32.4216 18.3834 32.4238V31.6316C18.405 31.6297 18.4267 31.6287 18.4484 31.6286C18.4935 31.6286 18.5284 31.6334 18.5599 31.6382C18.591 31.6428 18.6189 31.6475 18.6503 31.6475C18.6639 31.6475 18.6782 31.6466 18.6937 31.6445Z" fill="#519EBB"/>
<path d="M73.0607 23.2715V24.9218C73.0607 25.5504 72.7796 26.1791 72.2166 26.6729C65.6937 32.3982 59.1684 38.1213 52.646 43.8467C52.0961 44.3294 51.4446 44.5776 50.67 44.5776V42.9273C51.4447 42.9273 52.0961 42.6791 52.646 42.1964C59.1685 36.4709 65.6935 30.7477 72.2166 25.0227C72.7796 24.5288 73.0607 23.9003 73.0607 23.2715Z" fill="#93C8D8"/>
<path d="M28.2158 24.9138V24.7487V24.6662V24.5012V24.3361V24.2536V24.0886V23.9236V23.841V23.676V23.511V23.4285V23.2634C28.2158 23.9569 28.5277 24.6456 29.1019 25.1504C35.5456 30.8117 41.9964 36.4668 48.4432 42.1262C49.0483 42.6571 49.7808 42.9026 50.6703 42.9275V44.5778C49.781 44.553 49.0483 44.3075 48.4432 43.7765C41.9964 38.1171 35.5456 32.462 29.1019 26.8007C28.5277 26.296 28.2158 25.6072 28.2158 24.9138Z" fill="#93C8D8"/>
<path d="M50.5818 3.61192C51.3387 3.61192 52.0965 3.86475 52.6737 4.37093C59.1873 10.0852 65.701 15.7995 72.2131 21.5149C73.3413 22.5048 73.3439 24.0334 72.2168 25.0229C65.6938 30.7481 59.1686 36.4713 52.6461 42.1966C52.0962 42.6793 51.4447 42.9275 50.6703 42.9275C49.7809 42.9026 49.0482 42.6571 48.4431 42.1262C41.9964 36.4668 35.5456 30.8117 29.1019 25.1504C28.1905 24.3494 27.9402 23.0847 28.5482 22.0737C28.7306 21.7701 28.9517 21.5159 29.2215 21.2792C35.6494 15.642 42.0755 10.0035 48.5023 4.36475C49.0746 3.86305 49.8277 3.61192 50.5818 3.61192Z" fill="#A5DAEE"/>
<path d="M61.1613 17.0361V17.8283C61.1608 17.9015 61.1603 17.9748 61.1599 18.0485V17.2563C61.1603 17.1827 61.1608 17.1094 61.1613 17.0361Z" fill="#519EBB"/>
<path d="M61.1613 17.0361V17.8283C61.1608 17.9015 61.1603 17.9748 61.1599 18.0485V17.2563C61.1603 17.1827 61.1608 17.1094 61.1613 17.0361Z" fill="#519EBB"/>
<path d="M61.1614 17.7762V18.5684C61.1614 18.6042 61.1614 18.64 61.1609 18.6758V17.8836C61.1614 17.8478 61.1614 17.812 61.1614 17.7762Z" fill="#519EBB"/>
<path d="M61.1614 17.7762V18.5684C61.1614 18.6042 61.1614 18.64 61.1609 18.6758V17.8836C61.1614 17.8478 61.1614 17.812 61.1614 17.7762Z" fill="#519EBB"/>
<path d="M59.907 17.4844V18.2766C59.907 17.9484 59.8464 17.6095 59.7261 17.2623C59.3269 16.1094 58.4069 15.3635 57.0619 15.1046C56.7682 15.0482 56.4817 15.0198 56.2033 15.0198C55.269 15.0198 54.4259 15.338 53.7014 15.9739C52.5567 16.9786 51.4111 17.9826 50.2663 18.9873C50.0987 19.1347 49.9182 19.2458 49.6931 19.2458C49.6339 19.2458 49.5717 19.2382 49.5058 19.2214C49.2202 19.1492 49.0405 18.9266 49.0405 18.6836V17.8914C49.0405 18.1344 49.2202 18.3571 49.5058 18.4293C49.5717 18.446 49.6339 18.4536 49.6931 18.4536C49.9182 18.4536 50.0988 18.3425 50.2663 18.1952C51.4111 17.1904 52.5567 16.1865 53.7014 15.1817C54.4258 14.5458 55.269 14.2276 56.2033 14.2276C56.4816 14.2276 56.7682 14.2559 57.0619 14.3124C58.4069 14.5713 59.3269 15.3172 59.7261 16.4701C59.8464 16.8173 59.907 17.1563 59.907 17.4844Z" fill="#519EBB"/>
<path d="M59.9069 17.4844V18.2766C59.9069 17.9484 59.8463 17.6095 59.7261 17.2623C59.3269 16.1094 58.4068 15.3635 57.0618 15.1046C56.7681 15.0482 56.4816 15.0198 56.2033 15.0198C56.0207 15.0198 55.8417 15.032 55.6665 15.0563V14.2641C55.8444 14.2396 56.0237 14.2274 56.2033 14.2277C56.4816 14.2277 56.7682 14.256 57.0618 14.3124C58.4068 14.5714 59.3269 15.3173 59.7261 16.4702C59.8463 16.8173 59.9069 17.1563 59.9069 17.4844ZM55.6665 14.2641V15.0563C55.4039 15.0923 55.1459 15.157 54.8972 15.2495V14.4573C55.1459 14.3649 55.4039 14.3001 55.6665 14.2641ZM54.8972 14.4573V15.2495C54.6456 15.3435 54.4047 15.4649 54.1789 15.6115V14.8194C54.4047 14.6727 54.6456 14.5513 54.8972 14.4573ZM54.1789 14.8194V15.6116C54.0113 15.7205 53.8516 15.8416 53.7013 15.974C52.5566 16.9787 51.411 17.9826 50.2662 18.9874C50.212 19.035 50.1565 19.0788 50.0985 19.1164V18.3243C50.1565 18.2867 50.212 18.2429 50.2662 18.1952C51.411 17.1904 52.5566 16.1865 53.7013 15.1817C53.8516 15.0494 54.0112 14.9283 54.1789 14.8194ZM50.0984 18.3243V19.1164C50.0445 19.1514 49.9887 19.1807 49.9297 19.2027V18.4106C49.9887 18.3887 50.0446 18.3592 50.0984 18.3243ZM49.9297 18.4106V19.2027C49.8833 19.22 49.8349 19.2327 49.7844 19.2397V18.4476C49.834 18.4406 49.8827 18.4282 49.9297 18.4106ZM49.7844 18.4476V19.2397C49.7547 19.2439 49.7242 19.2459 49.6929 19.2459C49.6337 19.2459 49.5716 19.2383 49.5057 19.2215C49.2201 19.1493 49.0403 18.9267 49.0403 18.6837V17.8915C49.0403 18.1345 49.22 18.3572 49.5057 18.4294C49.5715 18.4461 49.6337 18.4537 49.6929 18.4537C49.7242 18.4537 49.7547 18.4517 49.7844 18.4476Z" fill="#519EBB"/>
<path d="M47.9384 24.9319V24.1397C47.9384 24.3094 48.0296 24.4836 48.2072 24.6296C48.3897 24.7803 48.5815 24.9211 48.7898 25.0424C49.6611 25.5481 50.5874 25.8168 51.5759 25.8168C51.9154 25.8168 52.2623 25.7852 52.6167 25.7204C53.6399 25.5336 54.498 25.0894 55.2313 24.444C56.6936 23.1577 58.1568 21.8719 59.6249 20.5904C60.4857 19.8384 61.0136 18.9452 61.1609 17.8837V18.6758C61.0135 19.7374 60.4857 20.6306 59.6249 21.3826C58.1569 22.664 56.6937 23.9499 55.2313 25.2361C54.498 25.8816 53.64 26.3257 52.6167 26.5126C52.2623 26.5773 51.9154 26.609 51.5759 26.609C50.5875 26.609 49.6611 26.3403 48.7898 25.8346C48.5815 25.7132 48.3897 25.5724 48.2072 25.4218C48.0296 25.2757 47.9384 25.1015 47.9384 24.9319Z" fill="#519EBB"/>
<path d="M61.1609 17.8836V18.6758C61.0505 19.4711 60.7266 20.1719 60.209 20.7896V19.9974C60.7266 19.3797 61.0505 18.6789 61.1609 17.8836ZM60.209 19.9975V20.7896C60.0357 20.9965 59.8408 21.194 59.6248 21.3826C58.1568 22.664 56.6936 23.9498 55.2313 25.2361C55.0183 25.4236 54.7948 25.5941 54.5597 25.7461V24.954C54.7948 24.8019 55.0183 24.6314 55.2313 24.4439C56.6936 23.1576 58.1568 21.8718 59.6248 20.5904C59.8407 20.4018 60.0357 20.2043 60.209 19.9975Z" fill="#519EBB"/>
<path d="M54.5597 24.954V25.7462C54.2383 25.9547 53.8955 26.1272 53.5373 26.2606V25.4685C53.8955 25.335 54.2383 25.1625 54.5597 24.954ZM53.5372 25.4685V26.2606C53.2458 26.3691 52.9395 26.4537 52.6166 26.5126C52.5304 26.5284 52.4438 26.5423 52.357 26.5543V25.7622C52.4432 25.7502 52.5297 25.7363 52.6166 25.7204C52.9395 25.6614 53.2459 25.5769 53.5372 25.4685ZM52.357 25.7622V26.5543C52.0981 26.5904 51.8372 26.6086 51.5759 26.6089C50.5875 26.6089 49.6611 26.3402 48.7898 25.8346C48.5815 25.7132 48.3897 25.5724 48.2072 25.4217C48.0296 25.2757 47.9384 25.1015 47.9384 24.9318V24.1397C47.9384 24.3093 48.0296 24.4835 48.2072 24.6296C48.3897 24.7802 48.5815 24.921 48.7898 25.0424C49.6611 25.548 50.5874 25.8168 51.5759 25.8168C51.832 25.8168 52.0924 25.7988 52.357 25.7622Z" fill="#519EBB"/>
<path d="M56.2767 13.1095C56.333 13.1095 56.3892 13.1133 56.4454 13.1207C56.5017 13.1199 56.558 13.1191 56.6143 13.1182C56.6547 13.1179 56.6954 13.1179 56.7358 13.1179C56.7639 13.1187 56.7916 13.1195 56.8198 13.1199C59.1265 13.3693 60.8704 14.8639 61.1609 16.9285C61.1609 16.9643 61.1609 17.0002 61.1613 17.036C61.1609 17.1092 61.1604 17.1825 61.1599 17.2562V17.5562C61.1605 17.6295 61.1609 17.7027 61.1613 17.7761C61.1613 17.8119 61.1613 17.8477 61.1609 17.8835C61.0136 18.945 60.4857 19.8382 59.6248 20.5903C58.1568 21.8717 56.6936 23.1575 55.2313 24.4438C54.498 25.0892 53.6399 25.5334 52.6167 25.7203C52.2624 25.7849 51.9154 25.8167 51.5759 25.8167C50.5875 25.8167 49.6611 25.5479 48.7898 25.0423C48.5815 24.9209 48.3897 24.7801 48.2072 24.6294C47.8918 24.3702 47.8488 24.022 48.1053 23.7684C48.2264 23.6488 48.3911 23.5875 48.5647 23.5875C48.7376 23.5875 48.9192 23.6483 49.075 23.7733C49.4532 24.0763 49.8581 24.3414 50.3474 24.4829C50.8089 24.6165 51.2562 24.6852 51.687 24.6852C52.5836 24.6852 53.4077 24.388 54.1362 23.761C55.7238 22.3949 57.2931 21.0122 58.8539 19.6226C59.8547 18.7319 60.1343 17.6485 59.7261 16.47C59.3269 15.3171 58.4069 14.5712 57.0618 14.3123C56.7681 14.2559 56.4816 14.2275 56.2033 14.2275C55.2689 14.2275 54.4258 14.5457 53.7013 15.1816C52.5566 16.1864 51.411 17.1903 50.2662 18.1951C50.0986 18.3424 49.9182 18.4535 49.693 18.4535C49.6338 18.4535 49.5716 18.446 49.5057 18.4292C49.1426 18.3374 48.9508 18.0023 49.0817 17.6916C49.1234 17.5928 49.1886 17.5068 49.2726 17.433C50.4783 16.378 51.6752 15.3157 52.8944 14.2735C53.6798 13.6018 54.6467 13.242 55.7313 13.1201C55.759 13.1194 55.7871 13.1185 55.8153 13.1177H55.9368C55.9926 13.119 56.0489 13.1198 56.1052 13.1205C56.1621 13.1132 56.2194 13.1095 56.2767 13.1095Z" fill="#81BFD2"/>
<path d="M53.0749 20.7825V21.5746C53.0749 21.7103 53.0201 21.8452 52.9111 21.9551C52.7903 22.0771 52.6197 22.1409 52.4427 22.1409C52.2736 22.1407 52.1094 22.0836 51.9758 21.9787C51.5895 21.6752 51.1861 21.3958 50.6907 21.2517C50.222 21.1154 49.7669 21.045 49.3287 21.045C48.4347 21.045 47.6102 21.3382 46.8808 21.9645C45.3861 23.248 43.9102 24.5483 42.4431 25.8559C41.7352 26.4873 41.3783 27.2136 41.3783 28.0028V27.2106C41.3783 26.4215 41.7352 25.6952 42.4431 25.0637C43.9102 23.7561 45.3861 22.4558 46.8808 21.1723C47.6103 20.546 48.4346 20.2528 49.3287 20.2528C49.767 20.2528 50.222 20.3233 50.6907 20.4595C51.1862 20.6036 51.5896 20.883 51.9758 21.1865C52.1093 21.2915 52.2736 21.3485 52.4427 21.3487C52.6198 21.3487 52.7904 21.2849 52.9111 21.1629C53.0202 21.053 53.0749 20.9182 53.0749 20.7825Z" fill="#519EBB"/>
<path d="M53.075 20.7825V21.5746C53.075 21.5848 53.0746 21.5953 53.074 21.6056V20.8134C53.0747 20.8031 53.075 20.7927 53.075 20.7825Z" fill="#519EBB"/>
<path d="M53.0741 20.8135V21.6056C53.0674 21.7153 53.0248 21.8231 52.9466 21.9164V21.1243C53.0248 21.0309 53.0674 20.9231 53.0741 20.8135ZM52.9466 21.1243V21.9164C52.9079 21.9627 52.8626 22.0029 52.8121 22.0356V21.2435C52.8627 21.2109 52.908 21.1707 52.9466 21.1243ZM52.8121 21.2435V22.0356C52.7734 22.0607 52.7318 22.0814 52.6883 22.0976V21.3054C52.7317 21.2893 52.7732 21.2685 52.8121 21.2435ZM52.6883 21.3054V22.0976C52.6411 22.1151 52.5921 22.1273 52.5423 22.1341V21.342C52.5921 21.3351 52.6411 21.3228 52.6883 21.3054ZM52.5423 21.342V22.1341C52.5096 22.1387 52.4763 22.141 52.4428 22.141C52.2737 22.1408 52.1095 22.0837 51.9759 21.9787C51.5897 21.6752 51.1863 21.3958 50.6908 21.2517C50.2221 21.1155 49.7671 21.045 49.3289 21.045C49.1486 21.045 48.9712 21.0569 48.7969 21.0811V20.2889C48.9732 20.2647 49.1509 20.2526 49.3289 20.2529C49.7671 20.2529 50.2221 20.3234 50.6908 20.4596C51.1863 20.6037 51.5897 20.8831 51.9759 21.1866C52.1095 21.2916 52.2737 21.3486 52.4428 21.3488C52.4763 21.3488 52.5096 21.3464 52.5423 21.342Z" fill="#519EBB"/>
<path d="M48.7969 20.2889V21.081C48.5378 21.1166 48.2834 21.1805 48.038 21.2717V20.4795C48.2834 20.3884 48.5379 20.3245 48.7969 20.2889ZM48.038 20.4795V21.2717C47.793 21.363 47.5552 21.4823 47.3257 21.6309V20.8388C47.5554 20.6902 47.793 20.5708 48.038 20.4795ZM47.3257 20.8388V21.631C47.1702 21.7319 47.0216 21.8434 46.8808 21.9646C45.3861 23.248 43.9102 24.5484 42.4431 25.856C42.2951 25.988 42.1624 26.1242 42.0452 26.2642V25.472C42.1624 25.332 42.2951 25.1958 42.4431 25.0638C43.9102 23.7561 45.3861 22.4558 46.8808 21.1724C47.0216 21.0512 47.1702 20.9398 47.3257 20.8388ZM42.0451 25.472V26.2642C41.6382 26.7499 41.4167 27.2822 41.3828 27.8486V27.0564C41.4167 26.49 41.6382 25.9578 42.0451 25.472Z" fill="#519EBB"/>
<path d="M41.3829 27.0564V27.8486C41.3798 27.8999 41.3783 27.9514 41.3783 28.0028V27.2106C41.3783 27.1589 41.3799 27.1075 41.3829 27.0564Z" fill="#519EBB"/>
<path d="M40.1294 27.7633V28.5555L40.1152 28.0488V27.2566L40.1294 27.7633Z" fill="#519EBB"/>
<path d="M45.1919 31.6316V32.4238C45.1686 32.4247 45.1452 32.4251 45.1219 32.4251C44.9945 32.4251 44.8856 32.4124 44.6791 32.3897C44.552 32.3757 44.3732 32.3494 44.2372 32.3308C42.1912 32.0529 40.5693 30.6798 40.1865 28.8983C40.1621 28.7851 40.148 28.6699 40.1293 28.5555V27.7633C40.148 27.8777 40.1621 27.9929 40.1865 28.1061C40.5693 29.8876 42.1912 31.2607 44.2372 31.5386C44.3732 31.5571 44.552 31.5836 44.6791 31.5976C44.8856 31.6203 44.9945 31.6329 45.1219 31.6329C45.1445 31.6329 45.1676 31.6324 45.1919 31.6316Z" fill="#519EBB"/>
<path d="M45.1919 31.6316V32.4238C45.1686 32.4247 45.1452 32.4251 45.1219 32.4251C44.9945 32.4251 44.8856 32.4124 44.6791 32.3897C44.552 32.3757 44.3732 32.3494 44.2372 32.3308C42.1912 32.0529 40.5693 30.6798 40.1865 28.8983C40.1621 28.7851 40.148 28.6699 40.1293 28.5555V27.7633C40.148 27.8777 40.1621 27.9929 40.1865 28.1061C40.5693 29.8876 42.1912 31.2607 44.2372 31.5386C44.3732 31.5571 44.552 31.5836 44.6791 31.5976C44.8856 31.6203 44.9945 31.6329 45.1219 31.6329C45.1445 31.6329 45.1676 31.6324 45.1919 31.6316Z" fill="#519EBB"/>
<path d="M51.6991 27.2806V28.0728C51.6991 28.1374 51.6866 28.2037 51.66 28.2698C51.6198 28.3698 51.5573 28.457 51.4733 28.5303C50.4347 29.4379 49.4082 30.3566 48.3507 31.2473C47.5653 31.9084 46.6373 32.3185 45.5564 32.425V31.6329C46.6373 31.5263 47.5653 31.1163 48.3507 30.4551C49.4082 29.5645 50.4346 28.6457 51.4733 27.7381C51.5573 27.6648 51.6197 27.5775 51.66 27.4776C51.6866 27.4116 51.6991 27.3452 51.6991 27.2806Z" fill="#519EBB"/>
<path d="M51.699 27.2806V28.0728C51.699 28.083 51.6987 28.0933 51.698 28.1035V27.3114C51.6987 27.3011 51.699 27.2908 51.699 27.2806ZM51.698 27.3114V28.1035C51.6944 28.1607 51.6815 28.2169 51.66 28.2699C51.6335 28.3356 51.5969 28.3967 51.5515 28.4508V27.6586C51.5969 27.6045 51.6335 27.5434 51.66 27.4777C51.6823 27.422 51.6947 27.3662 51.698 27.3114Z" fill="#519EBB"/>
<path d="M51.5516 27.6585V28.4507C51.5276 28.4793 51.5015 28.5059 51.4734 28.5303C50.4347 29.4379 49.4082 30.3566 48.3508 31.2473C48.181 31.3905 48.0025 31.5228 47.8164 31.6435V30.8513C48.0014 30.7316 48.1794 30.5993 48.3508 30.4551C49.4082 29.5645 50.4347 28.6457 51.4734 27.7381C51.5015 27.7137 51.5276 27.6871 51.5516 27.6585ZM47.8163 30.8514V31.6436C47.513 31.8404 47.1894 32.0033 46.8513 32.1292V31.337C47.1894 31.211 47.513 31.0482 47.8163 30.8514Z" fill="#519EBB"/>
<path d="M46.8514 31.337V32.1292C46.5102 32.2562 46.1501 32.3472 45.7704 32.3998V31.6076C46.1501 31.555 46.5102 31.464 46.8514 31.337ZM45.7704 31.6076V32.3998C45.6998 32.4095 45.6286 32.418 45.5565 32.4251V31.6329C45.628 31.6258 45.6993 31.6174 45.7704 31.6076Z" fill="#519EBB"/>
<path d="M49.4523 19.122C50.726 19.122 51.8585 19.5376 52.8484 20.3405C53.1294 20.5686 53.1477 20.9242 52.9113 21.163C52.7905 21.285 52.6198 21.3488 52.4428 21.3488C52.2738 21.3486 52.1095 21.2916 51.9759 21.1865C51.5897 20.8831 51.1863 20.6036 50.6908 20.4595C50.2222 20.3233 49.7671 20.2529 49.3289 20.2529C48.4348 20.2529 47.6103 20.5461 46.8809 21.1724C45.3862 22.4559 43.9103 23.7562 42.4433 25.0638C41.4394 25.9592 41.1414 27.0455 41.5659 28.2309C41.9981 29.4366 42.9701 30.1899 44.3991 30.4104C44.6338 30.4468 44.8633 30.4648 45.0871 30.4648C46.0252 30.4648 46.8639 30.1473 47.5791 29.5205C48.547 28.6718 49.5158 27.823 50.4827 26.973C50.645 26.8301 50.8232 26.7246 51.0513 26.7246C51.0821 26.7246 51.1138 26.7265 51.1465 26.7306C51.557 26.7804 51.7982 27.134 51.6602 27.4777C51.62 27.5777 51.5575 27.6649 51.4735 27.7382C50.4349 28.6457 49.4084 29.5645 48.351 30.4551C47.5656 31.1163 46.6376 31.5264 45.5566 31.6328C45.5179 31.6437 45.4871 31.6476 45.4589 31.6476C45.4275 31.6476 45.3997 31.6428 45.3685 31.6383C45.3316 31.6321 45.2944 31.6289 45.257 31.6287C45.2375 31.6287 45.216 31.6296 45.1921 31.6316C45.1678 31.6325 45.1446 31.6328 45.1221 31.6328C44.9947 31.6328 44.8858 31.6202 44.6792 31.5975C44.5521 31.5835 44.3733 31.5572 44.2373 31.5386C42.1914 31.2607 40.5695 29.8876 40.1867 28.1061C40.1622 27.9929 40.1482 27.8777 40.1294 27.7633L40.1154 27.2565C40.1162 27.2191 40.1285 26.9182 40.1289 26.8811C40.1294 26.8568 40.1294 26.8326 40.1299 26.8082C40.279 25.7401 40.8144 24.8448 41.6818 24.0891C43.0575 22.8909 44.4254 21.6857 45.7944 20.4813C46.5765 19.7939 47.4993 19.3325 48.5971 19.1819C48.8887 19.1419 49.174 19.122 49.4523 19.122Z" fill="#93C8D8"/>
<path d="M45.5565 31.6329V32.425C45.5177 32.4359 45.4869 32.4397 45.4588 32.4397C45.4274 32.4397 45.3995 32.435 45.3683 32.4304C45.3315 32.4242 45.2942 32.421 45.2568 32.4208C45.2373 32.4208 45.2159 32.4217 45.1919 32.4238V31.6316C45.2135 31.6297 45.2351 31.6287 45.2568 31.6287C45.3019 31.6287 45.3369 31.6334 45.3683 31.6383C45.3995 31.6428 45.4274 31.6476 45.4588 31.6476C45.4869 31.6475 45.5178 31.6438 45.5565 31.6329Z" fill="#519EBB"/>
<path d="M45.5564 31.6329V32.425C45.5386 32.4301 45.5205 32.434 45.5022 32.4366V31.6445C45.5205 31.6418 45.5386 31.638 45.5564 31.6329ZM45.5022 31.6445V32.4366C45.4878 32.4386 45.4733 32.4396 45.4587 32.4396C45.4274 32.4396 45.3995 32.4349 45.3683 32.4304C45.3315 32.4242 45.2942 32.421 45.2568 32.4208C45.2373 32.4208 45.2159 32.4216 45.1919 32.4238V31.6316C45.2135 31.6297 45.2351 31.6287 45.2568 31.6286C45.302 31.6286 45.3369 31.6334 45.3683 31.6382C45.3995 31.6428 45.4274 31.6475 45.4587 31.6475C45.4724 31.6475 45.4867 31.6466 45.5022 31.6445Z" fill="#519EBB"/>
<path d="M60.153 56.4668V58.1171C60.153 58.7457 59.8719 59.3744 59.3089 59.8682C52.786 65.5935 46.2607 71.3165 39.7382 77.042C39.1884 77.5247 38.5368 77.7729 37.7623 77.7729V76.1225C38.5369 76.1225 39.1884 75.8743 39.7382 75.3916C46.2608 69.6662 52.7858 63.9429 59.3089 58.2179C59.8719 57.724 60.153 57.0956 60.153 56.4668Z" fill="#93C8D8"/>
<path d="M15.3081 58.109V57.944V57.8615V57.6964V57.5314V57.4489V57.2839V57.1188V57.0363V56.8713V56.7062V56.6237V56.4587C15.3081 57.1522 15.62 57.8409 16.1941 58.3457C22.6379 64.007 29.0887 69.6621 35.5355 75.3215C36.1406 75.8524 36.8731 76.0979 37.7626 76.1228V77.7731C36.8733 77.7482 36.1406 77.5027 35.5355 76.9718C29.0887 71.3124 22.6379 65.6573 16.1941 59.996C15.6199 59.4912 15.3081 58.8025 15.3081 58.109Z" fill="#93C8D8"/>
<path d="M37.674 36.8072C38.431 36.8072 39.1888 37.06 39.7659 37.5662C46.2796 43.2805 52.7932 48.9948 59.3054 54.7101C60.4336 55.7001 60.4361 57.2287 59.3091 58.2181C52.7861 63.9434 46.2609 69.6665 39.7384 75.3918C39.1885 75.8746 38.537 76.1228 37.7626 76.1228C36.8732 76.0979 36.1405 75.8524 35.5354 75.3215C29.0887 69.6621 22.6379 64.007 16.1941 58.3457C15.2828 57.5446 15.0324 56.2799 15.6405 55.2689C15.8229 54.9654 16.044 54.7112 16.3138 54.4745C22.7417 48.8373 29.1678 43.1987 35.5946 37.56C36.1669 37.0583 36.92 36.8072 37.674 36.8072Z" fill="#A5DAEE"/>
<path d="M48.2536 50.2314V51.0236C48.2531 51.0968 48.2526 51.17 48.2522 51.2437V50.4516C48.2526 50.3779 48.2531 50.3047 48.2536 50.2314Z" fill="#519EBB"/>
<path d="M48.2536 50.2314V51.0236C48.2531 51.0968 48.2526 51.17 48.2522 51.2437V50.4516C48.2526 50.3779 48.2531 50.3047 48.2536 50.2314Z" fill="#519EBB"/>
<path d="M48.2536 50.9715V51.7636C48.2536 51.7994 48.2536 51.8353 48.2532 51.871V51.0789C48.2536 51.0431 48.2536 51.0073 48.2536 50.9715Z" fill="#519EBB"/>
<path d="M48.2536 50.9715V51.7636C48.2536 51.7994 48.2536 51.8353 48.2532 51.871V51.0789C48.2536 51.0431 48.2536 51.0073 48.2536 50.9715Z" fill="#519EBB"/>
<path d="M46.9993 50.6797V51.4719C46.9993 51.1437 46.9387 50.8047 46.8184 50.4576C46.4192 49.3046 45.4992 48.5587 44.1541 48.2999C43.8605 48.2434 43.5739 48.2151 43.2956 48.2151C42.3613 48.215 41.5182 48.5332 40.7937 49.1692C39.649 50.1739 38.5034 51.1779 37.3586 52.1826C37.191 52.3299 37.0105 52.4411 36.7853 52.4411C36.7262 52.4411 36.664 52.4335 36.5981 52.4167C36.3125 52.3445 36.1328 52.1219 36.1328 51.8788V51.0867C36.1328 51.3296 36.3125 51.5524 36.5981 51.6245C36.664 51.6412 36.7262 51.6489 36.7853 51.6489C37.0105 51.6489 37.1911 51.5377 37.3586 51.3904C38.5034 50.3857 39.649 49.3817 40.7937 48.377C41.5181 47.741 42.3613 47.4228 43.2956 47.4229C43.5739 47.4229 43.8605 47.4512 44.1541 47.5077C45.4992 47.7666 46.4192 48.5125 46.8184 49.6654C46.9387 50.0125 46.9993 50.3516 46.9993 50.6797Z" fill="#519EBB"/>
<path d="M46.9992 50.6797V51.4719C46.9992 51.1437 46.9386 50.8047 46.8184 50.4576C46.4192 49.3046 45.4991 48.5587 44.1541 48.2999C43.8604 48.2434 43.5739 48.2151 43.2956 48.2151C43.113 48.2151 42.934 48.2273 42.7587 48.2515V47.4594C42.9367 47.4349 43.116 47.4227 43.2956 47.4229C43.5738 47.4229 43.8604 47.4512 44.1541 47.5077C45.4991 47.7666 46.4192 48.5125 46.8184 49.6654C46.9386 50.0125 46.9992 50.3516 46.9992 50.6797ZM42.7587 47.4594V48.2515C42.4962 48.2875 42.2382 48.3523 41.9895 48.4448V47.6526C42.2382 47.5601 42.4962 47.4953 42.7587 47.4594ZM41.9895 47.6526V48.4447C41.7378 48.5388 41.497 48.6602 41.2712 48.8068V48.0146C41.497 47.868 41.7378 47.7466 41.9895 47.6526ZM41.2712 48.0147V48.8069C41.1035 48.9158 40.9439 49.0369 40.7936 49.1692C39.6489 50.1739 38.5033 51.1779 37.3585 52.1826C37.3043 52.2303 37.2488 52.2741 37.1908 52.3117V51.5195C37.2488 51.482 37.3043 51.4381 37.3585 51.3905C38.5033 50.3857 39.6489 49.3818 40.7936 48.377C40.9439 48.2447 41.1035 48.1236 41.2712 48.0147ZM37.1907 51.5195V52.3117C37.1368 52.3466 37.081 52.376 37.022 52.3979V51.6058C37.081 51.5839 37.1369 51.5544 37.1907 51.5195ZM37.022 51.6059V52.3979C36.9755 52.4153 36.9272 52.428 36.8767 52.435V51.6428C36.9263 51.6358 36.975 51.6234 37.022 51.6059ZM36.8767 51.6428V52.435C36.847 52.4391 36.8165 52.4412 36.7852 52.4412C36.726 52.4412 36.6639 52.4336 36.5979 52.4168C36.3124 52.3446 36.1326 52.1219 36.1326 51.8789V51.0868C36.1326 51.3297 36.3123 51.5525 36.5979 51.6246C36.6638 51.6414 36.726 51.649 36.7852 51.649C36.8165 51.649 36.847 51.6469 36.8767 51.6428Z" fill="#519EBB"/>
<path d="M35.0306 58.1271V57.335C35.0306 57.5046 35.1219 57.6789 35.2995 57.8249C35.482 57.9755 35.6738 58.1163 35.8821 58.2377C36.7534 58.7434 37.6797 59.0121 38.6682 59.0121C39.0077 59.0121 39.3546 58.9805 39.709 58.9157C40.7322 58.7288 41.5903 58.2847 42.3236 57.6392C43.7859 56.3529 45.2491 55.0671 46.7171 53.7857C47.578 53.0336 48.1058 52.1405 48.2531 51.0789V51.8711C48.1058 52.9327 47.578 53.8258 46.7171 54.5779C45.2492 55.8593 43.7859 57.1451 42.3236 58.4314C41.5903 59.0768 40.7322 59.521 39.709 59.7079C39.3546 59.7726 39.0077 59.8042 38.6682 59.8042C37.6798 59.8042 36.7534 59.5355 35.8821 59.0299C35.6738 58.9085 35.482 58.7677 35.2995 58.617C35.1219 58.471 35.0306 58.2968 35.0306 58.1271Z" fill="#519EBB"/>
<path d="M48.2532 51.0789V51.871C48.1428 52.6664 47.8189 53.3671 47.3013 53.9848V53.1927C47.8189 52.575 48.1428 51.8742 48.2532 51.0789ZM47.3013 53.1927V53.9849C47.128 54.1917 46.9331 54.3892 46.7171 54.5778C45.2491 55.8592 43.7859 57.1451 42.3236 58.4314C42.1106 58.6188 41.8871 58.7893 41.652 58.9414V58.1492C41.8871 57.9971 42.1106 57.8266 42.3236 57.6392C43.7859 56.3529 45.2491 55.0671 46.7171 53.7857C46.933 53.5971 47.128 53.3996 47.3013 53.1927Z" fill="#519EBB"/>
<path d="M41.652 58.1493V58.9414C41.3306 59.1499 40.9878 59.3224 40.6296 59.4559V58.6637C40.9878 58.5302 41.3306 58.3577 41.652 58.1493ZM40.6295 58.6637V59.4559C40.3381 59.5644 40.0318 59.649 39.7089 59.7079C39.6227 59.7236 39.5361 59.7375 39.4492 59.7496V58.9574C39.5354 58.9455 39.622 58.9316 39.7089 58.9157C40.0318 58.8567 40.3382 58.7721 40.6295 58.6637ZM39.4492 58.9574V59.7496C39.1904 59.7857 38.9295 59.8039 38.6682 59.8042C37.6798 59.8042 36.7534 59.5355 35.8821 59.0299C35.6738 58.9084 35.482 58.7676 35.2995 58.617C35.1219 58.471 35.0306 58.2967 35.0306 58.1271V57.335C35.0306 57.5046 35.1219 57.6788 35.2995 57.8248C35.482 57.9755 35.6738 58.1163 35.8821 58.2376C36.7534 58.7433 37.6797 59.012 38.6682 59.012C38.9243 59.0121 39.1847 58.9941 39.4492 58.9574Z" fill="#519EBB"/>
<path d="M43.369 46.3048C43.4253 46.3048 43.4815 46.3085 43.5377 46.316C43.594 46.3152 43.6503 46.3144 43.7066 46.3135C43.747 46.3132 43.7877 46.3131 43.8281 46.3131C43.8562 46.314 43.8838 46.3148 43.9121 46.3152C46.2188 46.5646 47.9627 48.0592 48.2532 50.1238C48.2532 50.1596 48.2532 50.1954 48.2536 50.2313C48.2532 50.3045 48.2526 50.3778 48.2522 50.4514V50.7515C48.2527 50.8248 48.2532 50.898 48.2536 50.9713C48.2536 51.0071 48.2536 51.043 48.2532 51.0787C48.1059 52.1403 47.578 53.0335 46.7171 53.7855C45.2491 55.0669 43.7859 56.3528 42.3236 57.6391C41.5903 58.2845 40.7322 58.7287 39.709 58.9156C39.3546 58.9802 39.0077 59.0119 38.6682 59.0119C37.6798 59.0119 36.7534 58.7432 35.8821 58.2376C35.6738 58.1162 35.482 57.9753 35.2995 57.8247C34.9841 57.5654 34.9411 57.2173 35.1976 56.9636C35.3187 56.844 35.4834 56.7827 35.657 56.7827C35.8298 56.7827 36.0114 56.8436 36.1673 56.9685C36.5455 57.2715 36.9503 57.5366 37.4397 57.6782C37.9012 57.8118 38.3485 57.8804 38.7793 57.8804C39.6759 57.8804 40.5 57.5833 41.2285 56.9563C42.8161 55.5901 44.3854 54.2074 45.9462 52.8179C46.9469 51.9272 47.2266 50.8437 46.8184 49.6653C46.4192 48.5124 45.4992 47.7665 44.1541 47.5076C43.8604 47.4511 43.5739 47.4228 43.2956 47.4228C42.3612 47.4227 41.5181 47.7409 40.7936 48.3769C39.6489 49.3816 38.5033 50.3856 37.3585 51.3903C37.1909 51.5377 37.0104 51.6488 36.7853 51.6488C36.7261 51.6488 36.6639 51.6412 36.598 51.6244C36.2349 51.5326 36.0431 51.1976 36.174 50.8869C36.2157 50.7881 36.2809 50.702 36.3649 50.6283C37.5706 49.5733 38.7675 48.5109 39.9867 47.4688C40.772 46.797 41.739 46.4373 42.8236 46.3154C42.8513 46.3147 42.8794 46.3138 42.9076 46.313H43.0291C43.0849 46.3142 43.1412 46.315 43.1975 46.3158C43.2544 46.3085 43.3117 46.3048 43.369 46.3048Z" fill="#81BFD2"/>
<path d="M40.1672 53.9777V54.7699C40.1672 54.9056 40.1124 55.0404 40.0034 55.1504C39.8826 55.2724 39.712 55.3362 39.535 55.3362C39.3659 55.336 39.2016 55.2789 39.068 55.1739C38.6818 54.8705 38.2784 54.591 37.783 54.4469C37.3143 54.3107 36.8592 54.2403 36.421 54.2403C35.5269 54.2403 34.7025 54.5335 33.9731 55.1598C32.4784 56.4432 31.0024 57.7436 29.5354 59.0512C28.8275 59.6826 28.4706 60.4088 28.4706 61.198V60.4059C28.4706 59.6168 28.8275 58.8904 29.5354 58.259C31.0025 56.9513 32.4784 55.6511 33.9731 54.3676C34.7025 53.7413 35.5269 53.4481 36.421 53.4481C36.8593 53.4481 37.3143 53.5186 37.783 53.6547C38.2784 53.7988 38.6819 54.0783 39.068 54.3817C39.2016 54.4867 39.3659 54.5438 39.535 54.544C39.7121 54.544 39.8827 54.4801 40.0034 54.3582C40.1125 54.2482 40.1672 54.1134 40.1672 53.9777Z" fill="#519EBB"/>
<path d="M40.1672 53.9777V54.7699C40.1672 54.7801 40.1669 54.7905 40.1663 54.8009V54.0087C40.167 53.9983 40.1672 53.988 40.1672 53.9777Z" fill="#519EBB"/>
<path d="M40.1664 54.0087V54.8009C40.1597 54.9106 40.117 55.0184 40.0388 55.1117V54.3195C40.117 54.2262 40.1597 54.1183 40.1664 54.0087ZM40.0388 54.3195V55.1117C40.0002 55.158 39.9549 55.1982 39.9044 55.2309V54.4387C39.9549 54.4061 40.0003 54.3659 40.0388 54.3195ZM39.9044 54.4387V55.2309C39.8657 55.2559 39.8241 55.2766 39.7806 55.2928V54.5007C39.8239 54.4846 39.8655 54.4638 39.9044 54.4387ZM39.7806 54.5007V55.2928C39.7334 55.3103 39.6844 55.3226 39.6346 55.3294V54.5372C39.6844 54.5304 39.7334 54.5181 39.7806 54.5007ZM39.6346 54.5372V55.3294C39.6019 55.3339 39.5686 55.3362 39.5351 55.3362C39.366 55.336 39.2018 55.279 39.0682 55.174C38.682 54.8705 38.2786 54.5911 37.7831 54.447C37.3144 54.3108 36.8594 54.2403 36.4211 54.2403C36.2408 54.2403 36.0635 54.2522 35.8892 54.2763V53.4842C36.0655 53.4599 36.2432 53.4479 36.4211 53.4482C36.8594 53.4482 37.3144 53.5186 37.7831 53.6548C38.2786 53.7989 38.682 54.0783 39.0682 54.3818C39.2018 54.4868 39.366 54.5439 39.5351 54.5441C39.5686 54.5441 39.6019 54.5417 39.6346 54.5372Z" fill="#519EBB"/>
<path d="M35.8891 53.4841V54.2763C35.6301 54.3119 35.3757 54.3758 35.1303 54.467V53.6748C35.3757 53.5837 35.6301 53.5197 35.8891 53.4841ZM35.1303 53.6748V54.467C34.8853 54.5583 34.6475 54.6776 34.418 54.8262V54.034C34.6477 53.8854 34.8853 53.7661 35.1303 53.6748ZM34.418 54.0341V54.8262C34.2625 54.9272 34.1138 55.0387 33.9731 55.1598C32.4784 56.4433 31.0025 57.7436 29.5354 59.0512C29.3874 59.1833 29.2547 59.3195 29.1374 59.4595V58.6673C29.2547 58.5273 29.3874 58.3911 29.5354 58.2591C31.0025 56.9514 32.4784 55.6511 33.9731 54.3676C34.1138 54.2465 34.2625 54.1351 34.418 54.0341ZM29.1374 58.6673V59.4595C28.7305 59.9452 28.509 60.4775 28.4751 61.0438V60.2516C28.509 59.6853 28.7305 59.1531 29.1374 58.6673Z" fill="#519EBB"/>
<path d="M28.4752 60.2516V61.0438C28.4721 61.0952 28.4706 61.1466 28.4706 61.1981V60.4059C28.4706 60.3542 28.4722 60.3028 28.4752 60.2516Z" fill="#519EBB"/>
<path d="M27.2217 60.9586V61.7507L27.2075 61.244V60.4519L27.2217 60.9586Z" fill="#519EBB"/>
<path d="M32.2842 64.8269V65.6191C32.2609 65.6199 32.2375 65.6204 32.2142 65.6204C32.0868 65.6204 31.9779 65.6077 31.7714 65.585C31.6443 65.571 31.4654 65.5446 31.3294 65.5261C29.2835 65.2482 27.6616 63.8751 27.2788 62.0935C27.2544 61.9804 27.2403 61.8651 27.2216 61.7507V60.9586C27.2403 61.073 27.2544 61.1882 27.2788 61.3014C27.6616 63.0829 29.2835 64.456 31.3294 64.7339C31.4654 64.7524 31.6443 64.7788 31.7714 64.7928C31.9779 64.8156 32.0868 64.8282 32.2142 64.8282C32.2367 64.8281 32.2599 64.8277 32.2842 64.8269Z" fill="#519EBB"/>
<path d="M32.2842 64.8269V65.6191C32.2609 65.6199 32.2375 65.6204 32.2142 65.6204C32.0868 65.6204 31.9779 65.6077 31.7714 65.585C31.6443 65.571 31.4654 65.5446 31.3294 65.5261C29.2835 65.2482 27.6616 63.8751 27.2788 62.0935C27.2544 61.9804 27.2403 61.8651 27.2216 61.7507V60.9586C27.2403 61.073 27.2544 61.1882 27.2788 61.3014C27.6616 63.0829 29.2835 64.456 31.3294 64.7339C31.4654 64.7524 31.6443 64.7788 31.7714 64.7928C31.9779 64.8156 32.0868 64.8282 32.2142 64.8282C32.2367 64.8281 32.2599 64.8277 32.2842 64.8269Z" fill="#519EBB"/>
<path d="M38.7914 60.4759V61.268C38.7914 61.3326 38.7788 61.399 38.7523 61.4651C38.7121 61.565 38.6496 61.6523 38.5656 61.7256C37.5269 62.6332 36.5004 63.5519 35.443 64.4425C34.6576 65.1037 33.7296 65.5137 32.6487 65.6203V64.8281C33.7296 64.7216 34.6576 64.3116 35.443 63.6504C36.5004 62.7597 37.5269 61.841 38.5656 60.9334C38.6496 60.8601 38.712 60.7728 38.7523 60.6729C38.7788 60.6068 38.7914 60.5404 38.7914 60.4759Z" fill="#519EBB"/>
<path d="M38.7913 60.4759V61.268C38.7913 61.2782 38.791 61.2885 38.7903 61.2988V60.5066C38.791 60.4963 38.7913 60.4861 38.7913 60.4759ZM38.7903 60.5066V61.2988C38.7867 61.3559 38.7738 61.4122 38.7523 61.4651C38.7258 61.5309 38.6892 61.5919 38.6438 61.646V60.8538C38.6892 60.7998 38.7258 60.7387 38.7523 60.673C38.7746 60.6173 38.787 60.5614 38.7903 60.5066Z" fill="#519EBB"/>
<path d="M38.6438 60.8538V61.646C38.6199 61.6746 38.5938 61.7012 38.5657 61.7256C37.527 62.6332 36.5005 63.5519 35.4431 64.4425C35.2733 64.5858 35.0948 64.7181 34.9087 64.8387V64.0466C35.0937 63.9269 35.2717 63.7946 35.4431 63.6504C36.5005 62.7598 37.527 61.841 38.5657 60.9334C38.5937 60.909 38.6199 60.8824 38.6438 60.8538ZM34.9086 64.0467V64.8388C34.6053 65.0357 34.2817 65.1985 33.9436 65.3245V64.5323C34.2817 64.4063 34.6052 64.2435 34.9086 64.0467Z" fill="#519EBB"/>
<path d="M33.9437 64.5323V65.3245C33.6025 65.4514 33.2424 65.5424 32.8627 65.595V64.8029C33.2424 64.7503 33.6025 64.6593 33.9437 64.5323ZM32.8627 64.8029V65.595C32.7921 65.6048 32.7209 65.6132 32.6488 65.6203V64.8282C32.7202 64.8211 32.7915 64.8127 32.8627 64.8029Z" fill="#519EBB"/>
<path d="M36.5446 52.3173C37.8183 52.3172 38.9508 52.7329 39.9407 53.5358C40.2217 53.7639 40.24 54.1195 40.0035 54.3583C39.8828 54.4802 39.7121 54.5441 39.5351 54.5441C39.366 54.5439 39.2018 54.4868 39.0682 54.3818C38.682 54.0783 38.2786 53.7989 37.7831 53.6548C37.3144 53.5186 36.8594 53.4481 36.4212 53.4481C35.5271 53.4481 34.7026 53.7413 33.9732 54.3677C32.4785 55.6512 31.0026 56.9515 29.5356 58.2591C28.5316 59.1545 28.2337 60.2408 28.6582 61.4262C29.0904 62.6318 30.0624 63.3851 31.4914 63.6057C31.7261 63.642 31.9556 63.66 32.1794 63.66C33.1175 63.66 33.9562 63.3426 34.6713 62.7158C35.6392 61.8671 36.6081 61.0182 37.5749 60.1683C37.7373 60.0254 37.9155 59.9199 38.1436 59.9199C38.1744 59.9199 38.2061 59.9218 38.2388 59.9258C38.6493 59.9756 38.8905 60.3292 38.7525 60.6729C38.7123 60.7729 38.6498 60.8602 38.5658 60.9334C37.5272 61.841 36.5007 62.7597 35.4433 63.6504C34.6578 64.3116 33.7299 64.7216 32.6489 64.8281C32.6102 64.839 32.5794 64.8428 32.5512 64.8428C32.5198 64.8428 32.4919 64.8381 32.4608 64.8336C32.4239 64.8273 32.3866 64.8241 32.3493 64.8239C32.3297 64.8239 32.3083 64.8248 32.2844 64.8269C32.2601 64.8278 32.2369 64.8281 32.2144 64.8281C32.087 64.8281 31.9781 64.8155 31.7715 64.7928C31.6444 64.7787 31.4656 64.7525 31.3296 64.7339C29.2837 64.456 27.6618 63.0829 27.2789 61.3014C27.2545 61.1882 27.2405 61.0729 27.2217 60.9586L27.2076 60.4518C27.2085 60.4144 27.2208 60.1134 27.2212 60.0764C27.2217 60.0521 27.2217 60.0278 27.2222 60.0035C27.3713 58.9354 27.9067 58.04 28.7741 57.2844C30.1497 56.0862 31.5177 54.8809 32.8867 53.6766C33.6688 52.9892 34.5916 52.5277 35.6894 52.3771C35.981 52.3371 36.2663 52.3173 36.5446 52.3173Z" fill="#93C8D8"/>
<path d="M32.6487 64.8281V65.6203C32.61 65.6312 32.5792 65.635 32.5511 65.635C32.5197 65.635 32.4918 65.6302 32.4606 65.6257C32.4238 65.6195 32.3865 65.6163 32.3491 65.6161C32.3296 65.6161 32.3081 65.617 32.2842 65.6191V64.8269C32.3058 64.825 32.3274 64.824 32.3491 64.8239C32.3942 64.8239 32.4292 64.8287 32.4606 64.8336C32.4918 64.8381 32.5197 64.8429 32.5511 64.8429C32.5792 64.8428 32.6101 64.839 32.6487 64.8281Z" fill="#519EBB"/>
<path d="M32.6487 64.8281V65.6203C32.6309 65.6254 32.6128 65.6293 32.5945 65.6319V64.8397C32.6128 64.8371 32.6309 64.8332 32.6487 64.8281ZM32.5945 64.8397V65.6319C32.5801 65.6339 32.5655 65.6349 32.551 65.6349C32.5196 65.6349 32.4918 65.6302 32.4606 65.6256C32.4238 65.6194 32.3865 65.6162 32.3491 65.6161C32.3296 65.6161 32.3081 65.6169 32.2842 65.619V64.8269C32.3058 64.8249 32.3274 64.8239 32.3491 64.8239C32.3943 64.8239 32.4292 64.8287 32.4606 64.8335C32.4918 64.838 32.5197 64.8428 32.551 64.8428C32.5646 64.8428 32.579 64.8419 32.5945 64.8397Z" fill="#519EBB"/>
<path d="M88.4515 82.7367L101.897 96.568M101.897 96.568L115.343 82.7367M101.897 96.568V63.3728C101.897 60.4381 100.764 57.6237 98.7466 55.5486C96.7294 53.4735 93.9934 52.3077 91.1406 52.3077H72.3168" stroke="#443DFF" stroke-width="2" stroke-linecap="round" stroke-linejoin="round"/>
<g clip-path="url(#clip0_1_205)">
<path fill-rule="evenodd" clip-rule="evenodd" d="M83.7921 103.609C80.923 103.609 78.5977 105.966 78.5977 108.873V164.725C78.5977 167.633 80.923 169.989 83.7921 169.989H130.662C133.53 169.989 135.857 167.633 135.857 164.725V124.678L116.502 103.609H83.7921Z" fill="#45B058"/>
<path d="M99.356 148.42C99.485 148.569 99.5587 148.756 99.5587 148.961C99.5587 149.354 99.2454 149.708 98.8389 149.708C98.6546 149.708 98.4518 149.634 98.3228 149.466C97.604 148.588 96.3865 148.027 95.2438 148.027C92.5519 148.027 90.5061 150.119 90.5061 153.089C90.5061 156.04 92.5529 158.15 95.2438 158.15C96.405 158.15 97.5477 157.646 98.3228 156.73C98.4508 156.581 98.6546 156.488 98.8389 156.488C99.2638 156.488 99.5587 156.861 99.5587 157.254C99.5587 157.441 99.485 157.627 99.356 157.777C98.3965 158.785 97.0879 159.533 95.2449 159.533C91.7051 159.533 88.921 156.918 88.921 153.089C88.921 149.26 91.7051 146.645 95.2449 146.645C97.0879 146.646 98.415 147.393 99.356 148.42ZM106.321 159.534C104.496 159.534 103.057 158.918 102.007 157.983C101.841 157.834 101.767 157.629 101.767 157.423C101.767 157.049 102.044 156.638 102.486 156.638C102.634 156.638 102.799 156.675 102.928 156.787C103.776 157.554 104.956 158.15 106.376 158.15C108.57 158.15 109.271 156.955 109.271 156.002C109.271 152.789 101.988 154.564 101.988 150.118C101.988 148.064 103.795 146.663 106.21 146.663C107.795 146.663 109.16 147.147 110.155 147.988C110.321 148.138 110.413 148.343 110.413 148.549C110.413 148.922 110.1 149.295 109.694 149.295C109.546 149.295 109.38 149.239 109.251 149.127C108.348 148.381 107.224 148.044 106.099 148.044C104.624 148.044 103.573 148.847 103.573 150.025C103.573 152.827 110.855 151.22 110.855 155.871C110.856 157.685 109.639 159.534 106.321 159.534ZM123.722 147.86L119.463 158.581C119.26 159.085 118.762 159.421 118.247 159.421H118.21C117.675 159.421 117.178 159.085 116.974 158.581L112.733 147.86C112.696 147.766 112.677 147.673 112.677 147.561C112.677 147.188 113.008 146.738 113.507 146.738C113.82 146.738 114.115 146.925 114.244 147.243L118.226 157.608L122.208 147.243C122.319 146.944 122.614 146.738 122.945 146.738C123.425 146.738 123.775 147.131 123.775 147.561C123.776 147.654 123.757 147.766 123.722 147.86Z" fill="white"/>
<path fill-rule="evenodd" clip-rule="evenodd" d="M135.905 124.727V125.764H122.799C122.799 125.764 116.336 124.457 116.524 118.807C116.524 118.807 116.737 124.727 122.671 124.727H135.905Z" fill="#349C42"/>
<path opacity="0.5" fill-rule="evenodd" clip-rule="evenodd" d="M116.55 103.616V118.721C116.55 120.438 117.681 124.728 122.8 124.728H135.907L116.55 103.616Z" fill="white"/>
</g>
<defs>
<clipPath id="clip0_1_205">
<rect width="65.5319" height="66.3905" fill="white" transform="translate(74.4681 103.609)"/>
</clipPath>
</defs>
</svg>
